<?xml version="1.0" encoding="UTF-8" standalone="no"?>
<!-- Created with Inkscape (http://www.inkscape.org/) -->

<svg
   xmlns:dc="http://purl.org/dc/elements/1.1/"
   xmlns:cc="http://creativecommons.org/ns#"
   xmlns:rdf="http://www.w3.org/1999/02/22-rdf-syntax-ns#"
   xmlns:svg="http://www.w3.org/2000/svg"
   xmlns="http://www.w3.org/2000/svg"
   xmlns:xlink="http://www.w3.org/1999/xlink"
   xmlns:sodipodi="http://sodipodi.sourceforge.net/DTD/sodipodi-0.dtd"
   xmlns:inkscape="http://www.inkscape.org/namespaces/inkscape"
   width="744.09448819"
   height="1052.3622047"
   id="svg2899"
   version="1.1"
   inkscape:version="0.47 r22583"
   sodipodi:docname="bits.svg">
  <defs
     id="defs2901" />
  <sodipodi:namedview
     id="base"
     pagecolor="#ffffff"
     bordercolor="#666666"
     borderopacity="1.0"
     inkscape:pageopacity="0.0"
     inkscape:pageshadow="2"
     inkscape:zoom="0.70710678"
     inkscape:cx="87.678006"
     inkscape:cy="459.15668"
     inkscape:document-units="px"
     inkscape:current-layer="layer1"
     showgrid="true"
     inkscape:window-width="632"
     inkscape:window-height="485"
     inkscape:window-x="640"
     inkscape:window-y="512"
     inkscape:window-maximized="0">
    <inkscape:grid
       type="xygrid"
       id="grid2988" />
  </sodipodi:namedview>
  <metadata
     id="metadata2904">
    <rdf:RDF>
      <cc:Work
         rdf:about="">
        <dc:format>image/svg+xml</dc:format>
        <dc:type
           rdf:resource="http://purl.org/dc/dcmitype/StillImage" />
        <dc:title></dc:title>
      </cc:Work>
    </rdf:RDF>
  </metadata>
  <g
     inkscape:label="Layer 1"
     inkscape:groupmode="layer"
     id="layer1">
    <path
       style="color:#000000;fill:none;stroke:#000000;stroke-width:1.25;stroke-miterlimit:4;marker:none;visibility:visible;display:inline;overflow:visible;enable-background:accumulate"
       d="m 148.65625,554.09375 c -0.34082,0.0389 -0.70297,0.11208 -1.03125,0.21875 -3.87604,1.2594 -5.67986,6.99166 -5,14.125 -6.57763,-2.85477 -12.60339,-2.8924 -15,0.40625 -2.39718,3.29943 -0.50013,9.03161 4.25,14.40625 -6.98941,1.55876 -11.875,5.05128 -11.875,9.125 0,4.07509 4.88185,7.56702 11.875,9.125 -4.7479,5.37364 -6.64666,11.07627 -4.25,14.375 2.39661,3.29865 8.42237,3.26102 15,0.40625 -0.67986,7.13334 1.12397,12.8656 5,14.125 3.87278,1.25834 8.7332,-2.30773 12.375,-8.46875 3.64181,6.16102 8.50223,9.72709 12.375,8.46875 3.87604,-1.2594 5.67986,-6.99166 5,-14.125 6.57763,2.85477 12.60339,2.8924 15,-0.40625 2.39667,-3.29873 0.4979,-9.00136 -4.25,-14.375 6.99315,-1.55798 11.875,-5.04992 11.875,-9.125 0,-4.07373 -4.8856,-7.56624 -11.875,-9.125 4.75013,-5.37464 6.64717,-11.10682 4.25,-14.40625 -2.39661,-3.29865 -8.42237,-3.26102 -15,-0.40625 0.67986,-7.13334 -1.12397,-12.8656 -5,-14.125 -3.87278,-1.25834 -8.7332,2.30773 -12.375,8.46875 -3.3331,-5.63876 -7.66394,-9.10798 -11.34375,-8.6875 z"
       id="path3738" />
    <path
       style="color:#000000;fill:none;stroke:#000000;stroke-width:1.25;stroke-miterlimit:4;stroke-dasharray:none;marker:none;visibility:visible;display:inline;overflow:visible;enable-background:accumulate"
       d="m 228.65625,554.09375 c -0.34082,0.0389 -0.70297,0.11208 -1.03125,0.21875 -5.25254,1.70666 -6.72581,11.61992 -3.3125,22.125 0.78062,2.4025 1.74973,4.60943 2.84375,6.59375 -2.22578,-0.42752 -4.62942,-0.65625 -7.15625,-0.65625 -11.0457,0 -20,4.47716 -20,10 0,5.52285 8.9543,10 20,10 2.52683,0 4.93047,-0.25998 7.15625,-0.6875 -1.09403,1.98432 -2.06313,4.19125 -2.84375,6.59375 -3.4133,10.50508 -1.94003,20.41835 3.3125,22.125 5.25254,1.70666 12.30545,-5.43242 15.71875,-15.9375 0.77857,-2.39618 1.2807,-4.75687 1.5625,-7 1.54788,1.65153 3.36508,3.267 5.40625,4.75 8.93616,6.4925 18.81626,8.12433 22.0625,3.65625 3.24625,-4.46807 -1.37635,-13.35125 -10.3125,-19.84375 -2.04365,-1.4848 -4.1361,-2.69396 -6.1875,-3.65625 2.05401,-0.96285 4.14115,-2.20074 6.1875,-3.6875 8.93615,-6.49249 13.55874,-15.37568 10.3125,-19.84375 -3.24625,-4.46808 -13.12634,-2.80499 -22.0625,3.6875 -2.04117,1.483 -3.85837,3.06722 -5.40625,4.71875 -0.2818,-2.24313 -0.78393,-4.60382 -1.5625,-7 -3.19998,-9.84851 -9.57525,-16.74041 -14.6875,-16.15625 z"
       id="use3782" />
    <path
       style="color:#000000;fill:none;stroke:#000000;stroke-width:1.25;stroke-miterlimit:4;stroke-dasharray:none;marker:none;visibility:visible;display:inline;overflow:visible;enable-background:accumulate"
       d="m 250.3125,554.09375 c -4.9101,0.36551 -10.66961,6.9643 -13.65625,16.15625 -0.77857,2.39618 -1.2807,4.75687 -1.5625,7 -1.54788,-1.65152 -3.36508,-3.23575 -5.40625,-4.71875 -8.93616,-6.4925 -18.81626,-8.15557 -22.0625,-3.6875 -3.24625,4.46808 1.37635,13.35125 10.3125,19.84375 2.04635,1.48676 4.1335,2.72465 6.1875,3.6875 -2.0514,0.96229 -4.14385,2.17145 -6.1875,3.65625 -8.93615,6.49249 -13.55874,15.37568 -10.3125,19.84375 3.24625,4.46808 13.12634,2.83624 22.0625,-3.65625 2.04117,-1.483 3.85837,-3.09847 5.40625,-4.75 0.2818,2.24313 0.78393,4.60382 1.5625,7 3.41331,10.50508 10.46622,17.64415 15.71875,15.9375 5.25254,-1.70666 6.72581,-11.61992 3.3125,-22.125 -0.78062,-2.4025 -1.74973,-4.60943 -2.84375,-6.59375 2.22578,0.42752 4.62942,0.6875 7.15625,0.6875 11.04569,0 20,-4.47716 20,-10 0,-5.52285 -8.95431,-10 -20,-10 -2.52683,0 -4.93047,0.22873 -7.15625,0.65625 1.09403,-1.98432 2.06313,-4.19125 2.84375,-6.59375 3.4133,-10.50508 1.94003,-20.41835 -3.3125,-22.125 -0.65657,-0.21333 -1.36106,-0.27097 -2.0625,-0.21875 z"
       id="use3784" />
    <path
       style="color:#000000;fill:none;stroke:#000000;stroke-width:1.25;stroke-miterlimit:4;stroke-dasharray:none;marker:none;visibility:visible;display:inline;overflow:visible;enable-background:accumulate"
       d="m 153.9375,669.84375 c -4.47124,-0.0394 -10.4149,2.12969 -16,6.1875 -2.33869,1.69916 -4.37945,3.56388 -6.0625,5.46875 2.48447,0.55351 5.22947,0.875 8.125,0.875 11.04569,0 20,-4.47715 20,-10 -1.21734,-1.67553 -3.37976,-2.5076 -6.0625,-2.53125 z"
       id="path3860" />
    <path
       style="color:#000000;fill:none;stroke:#000000;stroke-width:1.25;stroke-miterlimit:4;stroke-dasharray:none;marker:none;visibility:visible;display:inline;overflow:visible;enable-background:accumulate"
       d="m 142.625,648.4375 c 0.24144,2.53328 0.79299,5.24699 1.6875,8 3.4133,10.50508 10.43496,17.64416 15.6875,15.9375 3.24625,-4.46807 -1.37635,-13.35126 -10.3125,-19.84375 -2.33886,-1.69928 -4.73062,-3.08169 -7.0625,-4.09375 z"
       id="path3864" />
    <path
       style="color:#000000;fill:none;stroke:#000000;stroke-width:1.25;stroke-miterlimit:4;stroke-dasharray:none;marker:none;visibility:visible;display:inline;overflow:visible;enable-background:accumulate"
       d="m 177.375,648.4375 c -2.33188,1.01206 -4.72364,2.39447 -7.0625,4.09375 -8.93615,6.4925 -13.55875,15.37567 -10.3125,19.84375 5.25254,1.70665 12.27419,-5.43242 15.6875,-15.9375 0.89451,-2.75301 1.44606,-5.46672 1.6875,-8 z"
       id="path3868" />
    <path
       style="color:#000000;fill:none;stroke:#000000;stroke-width:1.25;stroke-miterlimit:4;stroke-dasharray:none;marker:none;visibility:visible;display:inline;overflow:visible;enable-background:accumulate"
       d="m 166.0625,669.84375 c -2.68274,0.0236 -4.84516,0.85572 -6.0625,2.53125 0,5.52284 8.9543,10 20,10 2.89552,0 5.64053,-0.32149 8.125,-0.875 -1.68305,-1.90487 -3.72381,-3.76959 -6.0625,-5.46875 -5.5851,-4.05781 -11.52876,-6.22691 -16,-6.1875 z"
       id="path3872" />
    <path
       style="color:#000000;fill:none;stroke:#000000;stroke-width:1.25;stroke-miterlimit:4;stroke-dasharray:none;marker:none;visibility:visible;display:inline;overflow:visible;enable-background:accumulate"
       d="m 160,672.375 c -5.25253,1.70665 -6.75705,11.58867 -3.34375,22.09375 0.89663,2.75953 2.04627,5.27374 3.34375,7.46875 1.29748,-2.19501 2.44713,-4.70922 3.34375,-7.46875 C 166.75706,683.96367 165.25254,674.08166 160,672.375 z"
       id="path3876" />
    <path
       style="color:#000000;fill:none;stroke:#000000;stroke-width:1.25;stroke-miterlimit:4;stroke-dasharray:none;marker:none;visibility:visible;display:inline;overflow:visible;enable-background:accumulate"
       d="m 60,582.375 c -2.898242,0 -5.638704,0.32051 -8.125,0.875 1.682476,1.90368 3.72521,3.73936 6.0625,5.4375 8.93616,6.49249 18.81625,8.15558 22.0625,3.6875 0,-5.52285 -8.954305,-10 -20,-10 z"
       id="path3884" />
    <path
       style="color:#000000;fill:none;stroke:#000000;stroke-width:1.25;stroke-miterlimit:4;stroke-dasharray:none;marker:none;visibility:visible;display:inline;overflow:visible;enable-background:accumulate"
       d="m 80,562.78125 c -1.297477,2.19501 -2.447125,4.70922 -3.34375,7.46875 -3.41331,10.50508 -1.90879,20.41834 3.34375,22.125 5.25253,-1.70665 6.75705,-11.61992 3.34375,-22.125 C 82.447123,567.49047 81.29748,564.97626 80,562.78125 z"
       id="path3888" />
    <path
       style="color:#000000;fill:none;stroke:#000000;stroke-width:1.25;stroke-miterlimit:4;stroke-dasharray:none;marker:none;visibility:visible;display:inline;overflow:visible;enable-background:accumulate"
       d="m 100,582.375 c -11.0457,0 -20,4.47715 -20,10 3.24624,4.46807 13.12634,2.805 22.0625,-3.6875 2.33729,-1.69814 4.38002,-3.53382 6.0625,-5.4375 -2.4863,-0.55449 -5.22676,-0.875 -8.125,-0.875 z"
       id="path3892" />
    <path
       style="color:#000000;fill:none;stroke:#000000;stroke-width:1.25;stroke-miterlimit:4;stroke-dasharray:none;marker:none;visibility:visible;display:inline;overflow:visible;enable-background:accumulate"
       d="m 82.03125,592.125 c -0.701443,-0.0522 -1.374683,0.0367 -2.03125,0.25 -3.24625,4.46808 1.37635,13.35125 10.3125,19.84375 2.338856,1.69928 4.730619,3.05044 7.0625,4.0625 -0.241441,-2.53328 -0.792992,-5.24699 -1.6875,-8 C 92.700862,599.0893 86.941348,592.49051 82.03125,592.125 z"
       id="path3896" />
    <path
       style="color:#000000;fill:none;stroke:#000000;stroke-width:1.25;stroke-miterlimit:4;stroke-dasharray:none;marker:none;visibility:visible;display:inline;overflow:visible;enable-background:accumulate"
       d="m 77.96875,592.125 c -4.910098,0.36551 -10.669604,6.9643 -13.65625,16.15625 -0.894506,2.75301 -1.446061,5.46672 -1.6875,8 2.331881,-1.01206 4.723644,-2.36322 7.0625,-4.0625 8.93615,-6.4925 13.55875,-15.37567 10.3125,-19.84375 -0.656567,-0.21333 -1.329807,-0.30222 -2.03125,-0.25 z"
       id="path3900" />
    <path
       id="path3915"
       d="m 68.65625,634.08093 c -0.34082,0.0389 -0.70297,0.11208 -1.03125,0.21875 -5.25254,1.70666 -6.72581,11.61992 -3.3125,22.125 0.78062,2.4025 1.74973,4.60943 2.84375,6.59375 -2.22578,-0.42752 -4.62942,-0.65625 -7.15625,-0.65625 -11.0457,0 -20,4.47716 -20,10 0,5.52285 8.9543,10 20,10 2.52683,0 4.93047,-0.25998 7.15625,-0.6875 -1.09403,1.98432 -2.06313,4.19125 -2.84375,6.59375 -3.4133,10.50508 -1.94003,20.41835 3.3125,22.125 5.25254,1.70666 12.30545,-5.43242 15.71875,-15.9375 0.77857,-2.39618 1.2807,-4.75687 1.5625,-7 1.54788,1.65153 3.36508,3.267 5.40625,4.75 8.93616,6.4925 18.81626,8.12433 22.0625,3.65625 3.24625,-4.46807 -1.37635,-13.35125 -10.3125,-19.84375 -2.04365,-1.4848 -4.1361,-2.69396 -6.1875,-3.65625 2.05401,-0.96285 4.14115,-2.20074 6.1875,-3.6875 8.93615,-6.49249 13.55874,-15.37568 10.3125,-19.84375 -3.24625,-4.46808 -13.12634,-2.80499 -22.0625,3.6875 -2.04117,1.483 -3.85837,3.06722 -5.40625,4.71875 -0.2818,-2.24313 -0.78393,-4.60382 -1.5625,-7 -3.19998,-9.84851 -9.57525,-16.74041 -14.6875,-16.15625 z"
       style="color:#000000;fill:none;stroke:#000000;stroke-width:1.25;stroke-miterlimit:4;stroke-dasharray:none;marker:none;visibility:visible;display:inline;overflow:visible;enable-background:accumulate" />
    <path
       id="path3917"
       d="m 90.3125,634.08093 c -4.9101,0.36551 -10.66961,6.9643 -13.65625,16.15625 -0.77857,2.39618 -1.2807,4.75687 -1.5625,7 -1.54788,-1.65152 -3.36508,-3.23575 -5.40625,-4.71875 -8.93616,-6.4925 -18.81626,-8.15557 -22.0625,-3.6875 -3.24625,4.46808 1.37635,13.35125 10.3125,19.84375 2.04635,1.48676 4.1335,2.72465 6.1875,3.6875 -2.0514,0.96229 -4.14385,2.17145 -6.1875,3.65625 -8.93615,6.49249 -13.55874,15.37568 -10.3125,19.84375 3.24625,4.46808 13.12634,2.83624 22.0625,-3.65625 2.04117,-1.483 3.85837,-3.09847 5.40625,-4.75 0.2818,2.24313 0.78393,4.60382 1.5625,7 3.41331,10.50508 10.46622,17.64415 15.71875,15.9375 5.25254,-1.70666 6.72581,-11.61992 3.3125,-22.125 -0.78062,-2.4025 -1.74973,-4.60943 -2.84375,-6.59375 2.22578,0.42752 4.62942,0.6875 7.15625,0.6875 11.04569,0 20,-4.47716 20,-10 0,-5.52285 -8.95431,-10 -20,-10 -2.52683,0 -4.93047,0.22873 -7.15625,0.65625 1.09403,-1.98432 2.06313,-4.19125 2.84375,-6.59375 3.4133,-10.50508 1.94003,-20.41835 -3.3125,-22.125 -0.65657,-0.21333 -1.36106,-0.27097 -2.0625,-0.21875 z"
       style="color:#000000;fill:none;stroke:#000000;stroke-width:1.25;stroke-miterlimit:4;stroke-dasharray:none;marker:none;visibility:visible;display:inline;overflow:visible;enable-background:accumulate" />
    <rect
       style="color:#000000;fill:none;stroke:#000000;stroke-width:1;stroke-linecap:butt;stroke-linejoin:miter;stroke-miterlimit:4;stroke-opacity:1;stroke-dasharray:none;stroke-dashoffset:0;marker:none;visibility:visible;display:inline;overflow:visible;enable-background:accumulate"
       id="rect2839"
       width="80"
       height="80"
       x="200"
       y="552.36218" />
    <rect
       style="color:#000000;fill:none;stroke:#000000;stroke-width:1;stroke-linecap:butt;stroke-linejoin:miter;stroke-miterlimit:4;stroke-opacity:1;stroke-dasharray:none;stroke-dashoffset:0;marker:none;visibility:visible;display:inline;overflow:visible;enable-background:accumulate"
       id="rect2839-1"
       width="80"
       height="80"
       x="120"
       y="552.36218" />
    <rect
       style="color:#000000;fill:none;stroke:#000000;stroke-width:1;stroke-linecap:butt;stroke-linejoin:miter;stroke-miterlimit:4;stroke-opacity:1;stroke-dasharray:none;stroke-dashoffset:0;marker:none;visibility:visible;display:inline;overflow:visible;enable-background:accumulate"
       id="rect2839-4"
       width="80"
       height="80"
       x="40"
       y="552.36218" />
    <rect
       style="color:#000000;fill:none;stroke:#000000;stroke-width:1;stroke-linecap:butt;stroke-linejoin:miter;stroke-miterlimit:4;stroke-opacity:1;stroke-dasharray:none;stroke-dashoffset:0;marker:none;visibility:visible;display:inline;overflow:visible;enable-background:accumulate"
       id="rect2839-8"
       width="80"
       height="80"
       x="40"
       y="632.36218" />
    <rect
       style="color:#000000;fill:none;stroke:#000000;stroke-width:1;stroke-linecap:butt;stroke-linejoin:miter;stroke-miterlimit:4;stroke-opacity:1;stroke-dasharray:none;stroke-dashoffset:0;marker:none;visibility:visible;display:inline;overflow:visible;enable-background:accumulate"
       id="rect2839-2"
       width="80"
       height="80"
       x="120"
       y="632.36218" />
    <path
       style="fill:#000000;fill-rule:evenodd"
       d="m 505.38851,519.08978 -5.38851,0.0969 -5,-0.0571 -9.75,-0.56276 c -5.3625,-0.30952 -13.575,-1.53029 -18.25,-2.71283 -4.675,-1.18253 -13.9,-3.7288 -20.5,-5.65837 -6.6,-1.92956 -16.275,-5.08907 -21.5,-7.02112 -5.225,-1.93206 -14.86951,-5.9357 -21.43224,-8.897 -6.56273,-2.96129 -12.06945,-5.24696 -12.23715,-5.07926 -0.1677,0.1677 1.25409,3.1982 3.15953,6.73443 1.90544,3.53624 3.47465,6.76702 3.48715,7.17952 l 3.4876,6.33676 c 0.9322,1.42272 1.51365,2.76804 1.2921,2.98959 -0.22155,0.22155 -1.90248,0.70275 -3.7354,1.06933 -2.84227,0.48756 -2.73476,0.29249 -5.52159,0.42036 l -9,4.68206 c -5.40172,2.81013 -11.02318,6.69507 -14.06037,9.71698 -2.83163,2.81739 -6.35507,7.76551 -8,11.23473 l -2.93963,6.19979 -1.21025,4.1004 -1.28975,5 0,3.35078 c 0,1.84292 0.51215,4.88042 1.1381,6.75 0.62596,1.86957 2.20096,4.8317 3.5,6.5825 1.67303,2.25484 2.3619,4.51521 2.3619,7.75 l 0,4.56672 c 0.21838,2.70039 0.2759,5.40862 0.19759,8.12348 -0.0783,2.71486 -0.22988,2.64504 0.0698,3.79099 1.04745,4.13597 1.4113,5.17752 3.41051,7.75253 2.60031,3.59104 2.31144,3.82763 5.45949,7.69944 l 4.66014,5.62596 c 2.34368,2.72084 7.04893,6.4865 10.47819,8.3858 3.42336,1.89603 8.13679,4.00781 10.47429,4.69285 3.43547,1.00681 4.25,1.69433 4.25,3.58724 l 0,2.34171 -0.19542,3.95659 0.65882,10.2717 c 0.36235,5.64944 0.29382,14.02976 -0.15229,18.62293 l -0.81111,8.35122 -4,2.19604 c -2.2,1.20782 -6.025,2.78856 -8.5,3.51276 -2.475,0.7242 -5.4,1.67463 -6.5,2.11207 -1.1,0.43743 -2.72741,1.02396 -3.61647,1.30339 -1.18988,0.37397 -1.92412,-0.5188 -2.78227,-3.38305 -0.70273,-2.34551 -2.4814,-4.89455 -4.47792,-6.41737 -2.06916,-1.57823 -4.61226,-2.52628 -6.7766,-2.52628 -1.90546,0 -4.13508,0.5625 -4.95469,1.25 -0.81962,0.6875 -2.0425,1.98541 -2.71751,2.88425 -0.67502,0.89884 -1.88981,5.39884 -2.69955,10 -0.80974,4.60116 -1.47287,12.04896 -1.47362,16.55065 -7.5e-4,4.5017 0.40106,9.2267 0.89293,10.5 0.49186,1.27331 1.87971,3.4401 3.08412,4.8151 1.96229,2.24025 2.95163,2.5 9.52192,2.5 5.9208,0 7.88856,-0.41141 10.22305,-2.13737 2.68248,-1.98324 3.17528,-2.03682 6.83378,-0.74301 2.16856,0.7669 7.99283,2.35314 12.94283,3.52498 6.09784,1.44356 9.64492,2.84188 11,4.33636 1.1,1.21316 2.675,2.46572 3.5,2.78345 0.825,0.31773 3.76735,0.61324 6.53856,0.65664 l 0,5e-5 0,4.8e-4 c 3.07184,0.0481 6.45752,-0.64448 8.67383,-1.77442 1.99939,-1.01935 6.25704,-2.16015 9.46144,-2.53511 5.34362,-0.62528 6.2087,-1.09297 10.44471,-5.64663 2.5402,-2.73069 4.88764,-4.96489 5.21654,-4.96489 0.3289,0 5.12396,-3.64055 10.65569,-8.09011 6.94702,-5.58798 10.53838,-9.22205 11.61191,-11.75 0.93981,-2.21307 1.61152,-7.02009 1.69922,-12.15989 0.0797,-4.675 -0.2377,-10.81578 -0.70544,-13.64617 l -0.85045,-5.14617 5.50411,-6.85383 c 3.02726,-3.76961 6.95413,-9.44446 8.72638,-12.61079 l 3.22227,-5.75696 c 0,0 2.80126,-4.33648 2.80126,-4.76411 0,-0.42763 0.61097,-1.66513 1.35771,-2.75 0.74674,-1.08488 1.93039,-3.77251 2.63032,-5.97251 0.69994,-2.2 1.59615,-4.45 1.99158,-5 0.39543,-0.55 2.00164,-5.95 3.56935,-12 2.67109,-10.30808 2.85351,-12.28949 2.90071,-31.5 l 0.0503,-20.5 -3.30001,-7.5 c -1.815,-4.125 -4.6275,-9.16111 -6.25,-11.19136 -1.62249,-2.03025 -2.94999,-3.94275 -2.94999,-4.25 l 3.07755,-5.30862 c 0.72734,-0.9625 2.44845,-2.99461 3.82468,-4.5158 l 2.50224,-2.76581 M 417.29957,727.8622 c 1.98159,0 4.02396,-0.7272 4.91496,-1.75 0.83848,-0.9625 1.7727,-2.425 2.07604,-3.25 0.34262,-0.9318 0.58145,-0.58166 0.63049,0.92431 l 0.0789,2.42432 2.5,-2.34863 c 1.375,-1.29175 2.49311,-3.28269 2.48469,-4.42431 -0.008,-1.14163 -0.39303,-2.67144 -0.85469,-3.39958 -0.67798,-1.06935 -1.15571,-1.00755 -2.48468,0.32143 -1.52709,1.52709 -1.64586,1.22701 -1.65287,-4.17611 -0.004,-3.20179 -0.48167,-8.74372 -1.06113,-12.31541 -0.57947,-3.57169 -1.90077,-8.40919 -2.93622,-10.75 -1.26313,-2.85552 -2.50827,-4.25602 -3.78388,-4.25602 -1.04569,0 -2.62883,0.80397 -3.51809,1.7866 -0.88927,0.98263 -2.32492,3.48125 -3.19034,5.55248 -0.86542,2.07124 -1.84361,7.26879 -2.17376,11.55011 -0.33016,4.28133 -0.27432,10.39309 0.12407,13.58169 0.51301,4.10607 1.41457,6.4877 3.09017,8.16329 1.55738,1.55739 3.5244,2.36583 5.75629,2.36583 l 5e-5,0 z M 439,721.34194 c 1.375,-0.33836 3.5125,-1.27009 4.75,-2.07053 1.44011,-0.93148 2.25,-2.45078 2.25,-4.22083 0,-1.52103 -0.88908,-4.50938 -1.97573,-6.64079 l -1.97573,-3.87528 2.96422,2.83991 c 1.63033,1.56195 3.22207,3.65231 3.53722,4.64524 0.49663,1.56473 1.3828,1.17476 6.6492,-2.92606 3.34192,-2.60228 8.38038,-6.98141 11.19659,-9.73141 4.01934,-3.92485 5.40964,-6.13805 6.46561,-10.29253 0.76634,-3.01497 1.05805,-6.82338 0.67788,-8.84988 -0.57644,-3.07269 -0.96518,-3.47085 -2.85331,-2.92242 -1.20227,0.34921 -4.85052,1.09139 -8.10721,1.6493 -4.92714,0.84406 -6.8697,1.83602 -11.57052,5.90841 -3.1071,2.69173 -7.41754,6.86872 -9.57875,9.28222 -2.16121,2.41349 -4.66587,5.30939 -5.56592,6.43535 -0.90005,1.12595 -2.24272,2.24927 -2.98371,2.49627 -0.97744,0.32581 -0.57488,1.367 1.46661,3.79316 2.50701,2.97942 2.77785,3.98478 2.4837,9.21957 -0.3273,5.82485 -0.3086,5.8702 2.16985,5.2603 z m -72.70044,-1.47975 c 1.98159,0 4.02396,-0.7272 4.91496,-1.75 0.83848,-0.9625 1.7727,-2.425 2.07604,-3.25 0.34262,-0.9318 0.58145,-0.58166 0.63049,0.92431 l 0.079,2.42432 2.5,-2.34863 c 1.375,-1.29175 2.49311,-3.28269 2.48469,-4.42431 -0.008,-1.14163 -0.39303,-2.67144 -0.85469,-3.39958 -0.67798,-1.06935 -1.15571,-1.00755 -2.48468,0.32143 -1.52709,1.52709 -1.64586,1.22701 -1.65287,-4.17611 -0.004,-3.20179 -0.48167,-8.74372 -1.06113,-12.31541 -0.57947,-3.57169 -1.90077,-8.40919 -2.93622,-10.75 -1.26313,-2.85552 -2.50827,-4.25602 -3.78388,-4.25602 -1.04569,0 -2.62883,0.80397 -3.51809,1.7866 -0.88927,0.98263 -2.32492,3.48125 -3.19034,5.55248 -0.86542,2.07124 -1.84361,7.26879 -2.17376,11.55011 -0.33016,4.28133 -0.27432,10.39309 0.12407,13.58169 0.51301,4.10607 1.41457,6.4877 3.09017,8.16329 1.55738,1.55739 3.5244,2.36583 5.75629,2.36583 l -5e-5,0 z M 404.25,719.76174 c 0.4125,0.0553 0.75,-1.40294 0.75,-3.24042 0,-3.23412 -0.17594,-3.38024 -5.50593,-4.57304 -4.13747,-0.92593 -6.36111,-2.13861 -8.94665,-4.87915 -1.89239,-2.00584 -3.6276,-3.43547 -3.85601,-3.17696 -0.22842,0.25851 -0.66737,3.03289 -0.97546,6.16529 l -0.56015,5.69528 5.6721,1.14991 c 3.11966,0.63245 7.2471,1.51187 9.1721,1.95427 1.925,0.4424 3.8375,0.84957 4.25,0.90482 z M 434,717.36219 c 0.55,-0.33992 0.99311,-1.60398 0.98469,-2.80902 -0.008,-1.20504 -0.45153,-2.86598 -0.98469,-3.69098 -0.70877,-1.09674 -0.97349,-0.34157 -0.98469,2.80902 -0.009,2.62138 0.37634,4.06696 0.98469,3.69098 z m -51,-8 c 0.55,-0.33992 0.99311,-1.60398 0.98469,-2.80902 -0.008,-1.20504 -0.45153,-2.86598 -0.98469,-3.69098 -0.70877,-1.09674 -0.97349,-0.34157 -0.98469,2.80902 -0.009,2.62138 0.37634,4.06696 0.98469,3.69098 z m 19.75,0.44261 c 1.82387,0.0465 2.25,-0.48601 2.25,-2.81177 0,-2.5066 -0.44423,-2.94124 -3.51555,-3.43965 -1.93356,-0.31377 -4.69424,-1.49765 -6.13486,-2.63084 -1.44062,-1.13319 -2.3902,-2.06035 -2.11018,-2.06035 0.28003,0 2.42229,0.675 4.76059,1.5 2.3383,0.825 5.04303,1.5 6.0105,1.5 1.38916,0 1.90841,-1.19543 2.46934,-5.68493 0.39066,-3.12672 1.09954,-6.70875 1.57529,-7.96007 0.47575,-1.25132 1.75033,-3.16046 2.8324,-4.24253 1.95653,-1.95653 1.95123,-1.97303 -0.95847,-2.98736 -2.45797,-0.85685 -3.76569,-0.58138 -8.17746,1.72254 -2.88838,1.50837 -9.1201,3.58262 -13.84826,4.60943 l -8.59666,1.86695 1.16849,3.95745 c 0.64267,2.1766 2.06548,4.46619 3.1618,5.08798 1.09632,0.6218 3.80637,2.612 6.02234,4.42268 2.21597,1.81067 5.56166,4.14735 7.43486,5.1926 1.87321,1.04526 4.41833,1.9263 5.65583,1.95787 z m 25.25,0.0574 c 0.55,0 1,-0.70156 1,-1.55902 0,-0.85746 -0.45,-1.2809 -1,-0.94098 -0.55,0.33992 -1,1.04148 -1,1.55902 0,0.51754 0.45,0.94098 1,0.94098 z m -0.47034,-6.64976 c 1.01816,-0.3907 1.26044,-1.3545 0.80553,-3.2045 -0.35781,-1.45516 -1.49092,-4.62193 -2.51801,-7.03728 -1.0271,-2.41534 -2.12598,-4.13299 -2.44198,-3.817 -0.31599,0.316 -0.11757,2.06719 0.44093,3.89154 0.5585,1.82435 1.2949,4.98403 1.63644,7.0215 0.45136,2.69263 1.01872,3.55188 2.07709,3.14574 z M 377,701.86219 c 0.55,0 1,-0.70156 1,-1.55902 0,-0.85746 -0.45,-1.2809 -1,-0.94098 -0.55,0.33992 -1,1.04148 -1,1.55902 0,0.51754 0.45,0.94098 1,0.94098 z m 55.43506,0 c 0.17436,0 5.11692,-4.78248 10.98346,-10.62774 6.35699,-6.33392 9.74023,-10.33043 8.37396,-9.89187 -1.26086,0.40473 -8.47589,0.96317 -16.03339,1.24097 -13.71406,0.50412 -13.73619,0.50881 -11.32772,2.40332 1.44899,1.13977 3.29684,4.59062 4.62478,8.63676 1.21638,3.70621 2.40291,7.07606 2.63674,7.48856 0.23383,0.4125 0.5678,0.75 0.74217,0.75 z m 4.50592,-8 c -0.51754,0 -0.94098,-0.45 -0.94098,-1 0,-0.55 0.70156,-1 1.55902,-1 0.85746,0 1.2809,0.45 0.94098,1 -0.33992,0.55 -1.04148,1 -1.55902,1 z m 6.61804,-7 c -0.85746,0 -1.55902,-0.45 -1.55902,-1 0,-0.55 0.42344,-1 0.94098,-1 0.51754,0 1.2191,0.45 1.55902,1 0.33992,0.55 -0.0835,1 -0.94098,1 z m -67.02936,8.35024 c 1.01816,-0.3907 1.26044,-1.3545 0.80553,-3.2045 -0.35781,-1.45516 -1.49092,-4.62193 -2.51801,-7.03728 -1.0271,-2.41534 -2.12598,-4.13299 -2.44198,-3.817 -0.31599,0.316 -0.11757,2.06719 0.44093,3.89154 0.5585,1.82435 1.2949,4.98403 1.63644,7.0215 0.45136,2.69263 1.01872,3.55188 2.07709,3.14574 z m 53.63855,-16.42919 c 2.56752,0.0434 5.38002,-0.19419 6.25,-0.52804 0.91863,-0.35251 1.58179,-1.77501 1.58179,-3.39301 0,-1.618 -0.66316,-3.0405 -1.58179,-3.39301 -0.86998,-0.33385 -3.53318,-0.60699 -5.91821,-0.60699 -2.38503,0 -5.04823,0.27314 -5.91821,0.60699 -0.92304,0.3542 -1.58179,1.7771 -1.58179,3.41667 0,1.54532 0.5625,3.03665 1.25,3.31406 0.6875,0.27741 3.3507,0.53991 5.91821,0.58333 z m -4.45743,-11.98873 c 7.81593,0.0372 18.84093,-0.42838 24.5,-1.03468 5.65907,-0.6063 12.53922,-1.66731 15.28922,-2.35781 4.1468,-1.04121 5.05099,-1.67519 5.29883,-3.71529 0.16435,-1.35291 -0.39981,-7.13227 -1.2537,-12.84303 -0.85388,-5.71075 -2.27661,-13.33031 -3.16161,-16.93235 -0.88501,-3.60204 -1.91548,-6.88379 -2.28993,-7.29278 -0.37446,-0.40899 -3.1362,0.84217 -6.13721,2.78035 -3.00101,1.93819 -8.38138,4.47189 -11.95638,5.63043 -4.64739,1.50608 -10.06789,2.24161 -19.01815,2.58067 -7.46749,0.28288 -14.10202,0.0369 -16.44378,-0.60971 -2.15909,-0.59615 -4.04041,-0.96912 -4.18071,-0.82881 -0.1403,0.1403 0.0149,7.51468 0.3449,16.38751 0.56121,15.08945 0.7357,16.19822 2.69887,17.15012 1.15438,0.55974 8.49372,1.04816 16.30965,1.08538 z m 6.07255,-6.01389 c -2.90583,-0.0449 -6.69923,-0.70214 -8.42976,-1.46061 -1.73054,-0.75847 -4.09304,-2.58245 -5.25,-4.05329 C 416.9466,653.79589 416,651.2587 416,649.62854 c 0,-1.98078 0.96147,-3.86208 2.89858,-5.67161 1.59422,-1.48922 4.85672,-3.32582 7.25,-4.08134 2.39328,-0.75551 4.90953,-1.79405 5.59166,-2.30788 0.84024,-0.63291 2.09505,-0.17165 3.89057,1.43013 1.45768,1.30039 3.93706,3.56723 5.50975,5.03743 2.12429,1.98584 2.85944,3.60126 2.85944,6.28333 0,2.78606 -0.79141,4.40167 -3.46667,7.07692 -3.11426,3.11427 -4.00374,3.45838 -8.75,3.3851 z m -0.85975,-1.18264 c 2.51703,0.0118 5.13892,-0.42899 5.82642,-0.97959 0.6875,-0.5506 1.25,-0.72099 1.25,-0.37864 0,0.34234 0.93377,-0.31133 2.07505,-1.45261 1.14128,-1.14128 2.31693,-3.56562 2.61257,-5.38743 0.40326,-2.48498 0.0306,-3.81925 -1.49171,-5.34161 -1.11608,-1.11608 -1.76674,-2.29174 -1.44591,-2.61258 0.32083,-0.32083 -0.41822,-0.58333 -1.64235,-0.58333 -1.22915,0 -1.94896,-0.44774 -1.60765,-1 0.33992,-0.55 -0.35667,-1 -1.54797,-1 -1.54671,0 -1.99574,0.44372 -1.57047,1.55194 0.32754,0.85356 0.17932,1.2947 -0.32938,0.98031 -0.5087,-0.3144 -0.86014,-1.43159 -0.78096,-2.48266 0.0792,-1.05107 0.50054,-1.69065 0.93637,-1.42129 0.43582,0.26935 0.79241,0.0132 0.79241,-0.56928 0,-0.58246 -0.38026,-1.05902 -0.84501,-1.05902 -0.46476,0 -1.53104,0.7875 -2.36951,1.75 -0.83848,0.9625 -1.81321,2.425 -2.16608,3.25 -0.35287,0.825 -0.45372,0.4875 -0.22411,-0.75 0.22961,-1.2375 0.01,-2.25 -0.48891,-2.25 -0.49851,0 -0.90638,0.47656 -0.90638,1.05902 0,0.58246 -0.45,0.7809 -1,0.44098 -0.55,-0.33992 -1,-0.11492 -1,0.5 0,0.61492 -0.51827,0.79773 -1.1517,0.40624 -0.63344,-0.39148 -1.64594,-0.0359 -2.25,0.79022 -0.60407,0.8261 -1.5483,1.51608 -2.0983,1.53328 -0.55,0.0172 -1.38742,1.38212 -1.86093,3.03316 -0.59212,2.0646 -0.43239,3.89603 0.51159,5.86558 0.7549,1.57503 2.90792,3.58866 4.78451,4.47474 1.87659,0.88609 5.47137,1.62074 7.98841,1.63257 z m -2.11456,-10.7511 c -0.16996,-0.008 -0.98402,-0.45153 -1.80902,-0.98469 -0.90129,-0.58246 -1.02463,-0.97549 -0.30902,-0.98469 0.65504,-0.008 1.4691,0.43469 1.80902,0.98469 0.33992,0.55 0.47898,0.99311 0.30902,0.98469 z m 3.13196,0.0153 c -0.51754,0 -0.94098,-0.17686 -0.94098,-0.39301 0,-0.21616 0.69837,-0.661 1.55194,-0.98855 0.88992,-0.34149 1.29132,-0.17385 0.94098,0.39301 -0.33602,0.5437 -1.0344,0.98855 -1.55194,0.98855 z m -7.44098,-1 c -0.275,0 -0.5,-0.225 -0.5,-0.5 0,-0.275 0.225,-0.5 0.5,-0.5 0.275,0 0.5,0.225 0.5,0.5 0,0.275 -0.225,0.5 -0.5,0.5 z m 11,0 c -0.275,0 -0.5,-0.225 -0.5,-0.5 0,-0.275 0.225,-0.5 0.5,-0.5 0.275,0 0.5,0.225 0.5,0.5 0,0.275 -0.225,0.5 -0.5,0.5 z M 424,629.71065 c 7.54279,0.0868 12.74904,-0.44578 18.48551,-1.89102 4.39203,-1.10652 9.79203,-3.22192 12,-4.70088 2.20797,-1.47896 5.77098,-4.03418 7.91781,-5.67825 2.14682,-1.64408 5.82339,-5.59746 8.17014,-8.7853 2.34675,-3.18783 5.00711,-8.02486 5.9119,-10.74895 l 1.64509,-4.95288 -4.10628,-5.55847 c -2.25846,-3.05715 -5.00086,-7.64542 -6.09423,-10.19615 -1.09337,-2.55073 -2.50162,-7.6332 -3.12944,-11.29439 l -1.1415,-6.65671 -11.0795,2.28981 c -6.09372,1.25939 -15.8045,2.80428 -21.5795,3.43308 -5.775,0.6288 -15.45,0.88702 -21.5,0.57381 -6.05,-0.3132 -13.59747,-1.10894 -16.77216,-1.76831 -4.89746,-1.01718 -5.68375,-1.47742 -5.18873,-3.03708 0.32089,-1.01102 1.64103,-4.43439 2.93364,-7.60749 1.29262,-3.17311 2.20866,-5.91317 2.03564,-6.08904 -0.17302,-0.17587 -2.07686,0.57929 -4.23076,1.67812 -2.15389,1.09884 -6.17035,3.77971 -8.92546,5.9575 -3.52834,2.78899 -5.68473,5.52971 -7.29393,9.27039 -1.25654,2.92092 -2.61025,7.71027 -3.00823,10.64299 l -0.72359,5.33222 2.58679,-2.47768 c 1.42273,-1.36273 4.25984,-3.17656 6.30467,-4.03073 2.04484,-0.85418 5.32179,-1.55305 7.28212,-1.55305 1.96033,0 5.23728,0.69887 7.28212,1.55305 2.04483,0.85417 5.01212,2.76667 6.59398,4.25 1.58185,1.48332 3.70947,4.49695 4.72804,6.69695 1.01856,2.2 1.86182,4.9 1.8739,6 0.0206,1.87746 0.69595,2 11.02196,2 9.88505,0 11,-0.18063 11,-1.78212 0,-0.98016 0.69887,-3.45516 1.55305,-5.5 0.85417,-2.04483 2.76667,-5.01212 4.25,-6.59398 1.48332,-1.58185 4.49695,-3.70947 6.69695,-4.72804 2.2,-1.01856 5.70195,-1.86182 7.78212,-1.8739 2.08016,-0.0121 5.45516,0.67691 7.5,1.53109 2.04483,0.85417 5.01212,2.76667 6.59398,4.25 1.58185,1.48332 3.70947,4.49695 4.72804,6.69695 1.01856,2.2 1.86182,5.70195 1.8739,7.78212 0.0121,2.08016 -0.67691,5.45516 -1.53109,7.5 -0.85417,2.04483 -2.76667,5.01212 -4.25,6.59398 -1.48332,1.58185 -4.49695,3.70947 -6.69695,4.72804 -2.2,1.01856 -5.8,1.85194 -8,1.85194 -2.2,0 -5.80386,-0.81948 -8.00858,-1.82106 -2.20472,-1.00158 -5.41958,-3.4281 -7.14414,-5.39227 -1.72456,-1.96416 -3.65845,-5.15558 -4.29754,-7.09203 -1.09375,-3.3141 -1.48163,-3.56077 -6.60586,-4.201 -2.99413,-0.37409 -7.89363,-0.37409 -10.88776,0 -5.13947,0.64214 -5.50969,0.87956 -6.62069,4.24593 -0.64725,1.96117 -2.72611,5.28066 -4.6197,7.37663 -1.89358,2.09598 -5.41021,4.56219 -7.81473,5.48049 -2.46904,0.94293 -6.12383,1.50254 -8.39718,1.28574 l -4.02534,-0.38388 2.18116,2.32174 c 1.19963,1.27696 4.44448,3.80386 7.21076,5.61534 2.76628,1.81147 8.4046,4.47424 12.5296,5.91726 4.125,1.44302 8.625,2.80254 10,3.02117 1.375,0.21862 7.225,0.45187 13,0.51832 z m -8.9647,-13.02951 c -3.00982,0.0415 -4.41705,-0.45736 -5.30625,-1.88121 -0.72224,-1.15648 -2.3227,-1.93774 -3.9696,-1.93774 -1.5177,0 -2.75902,-0.3375 -2.7585,-0.75 5.2e-4,-0.4125 5.62576,-0.75 12.50052,-0.75 6.87476,0 12.49933,0.3375 12.49905,0.75 -2.9e-4,0.4125 -1.46727,0.75 -3.25997,0.75 -2.10784,0 -3.67454,0.66466 -4.43429,1.88121 -0.82737,1.32482 -2.3863,1.89793 -5.27096,1.93774 z M 412.5,615.86219 c 0.825,0 1.5,-0.675 1.5,-1.5 0,-0.825 -0.675,-1.5 -1.5,-1.5 -0.825,0 -1.5,0.675 -1.5,1.5 0,0.825 0.675,1.5 1.5,1.5 z m 5,0 c 0.825,0 1.5,-0.675 1.5,-1.5 0,-0.825 -0.675,-1.5 -1.5,-1.5 -0.825,0 -1.5,0.675 -1.5,1.5 0,0.825 0.675,1.5 1.5,1.5 z m -32.96189,-6.02196 c 1.67096,0.0121 5.04233,-0.99054 7.49193,-2.22804 2.4496,-1.2375 5.45899,-3.76279 6.68754,-5.61175 1.22855,-1.84897 2.5279,-4.92987 2.88746,-6.84646 0.36094,-1.924 0.10308,-5.32262 -0.57574,-7.58834 -0.67622,-2.257 -2.6694,-5.54355 -4.4293,-7.30345 -1.7599,-1.7599 -5.04645,-3.75308 -7.30345,-4.4293 -2.25699,-0.67621 -5.60954,-0.94494 -7.45009,-0.59718 -1.84055,0.34776 -4.81307,1.52688 -6.6056,2.62025 -1.79253,1.09337 -4.15372,3.45456 -5.24709,5.24709 -1.09337,1.79253 -2.27249,4.76505 -2.62025,6.6056 -0.34776,1.84055 -0.12426,5.04213 0.49667,7.1146 0.62093,2.07248 2.10628,5.01061 3.30079,6.52917 1.1945,1.51857 4.00719,3.59461 6.25042,4.61344 2.24323,1.01882 5.44575,1.86229 7.11671,1.87437 z M 385.5,599.86219 c -1.24031,0 -2.81055,-0.66927 -3.48943,-1.48727 -0.67888,-0.81799 -0.9731,-2.16799 -0.65383,-3 0.34897,-0.90941 0.0183,-1.51273 -0.82911,-1.51273 -0.77528,0 -1.68771,0.45 -2.02763,1 -0.33992,0.55 -1.33622,1 -2.214,1 -1.43143,0 -1.42286,-0.19129 0.0831,-1.85538 1.05248,-1.16297 1.42023,-2.56244 0.98542,-3.75 -0.66367,-1.81269 -0.59661,-1.80931 1.55088,0.0782 l 2.24455,1.97284 -0.71601,-2.97284 -0.71601,-2.97285 2.45548,2.25 c 1.35051,1.2375 3.32647,2.25168 4.39102,2.25374 1.06455,0.002 3.4488,0.9263 5.29833,2.05389 1.84953,1.12758 3.12557,2.28735 2.83565,2.57728 -0.28993,0.28992 -1.43609,0.0407 -2.54704,-0.55389 -1.11093,-0.59453 -2.26035,-1.08099 -2.55424,-1.08099 -0.2939,0 -0.27314,0.68073 0.0461,1.51273 0.31927,0.83201 0.025,2.18201 -0.65383,3 -0.67885,0.818 -2.24909,1.48727 -3.4894,1.48727 z m 62.03811,9.97804 c 1.67096,0.0121 5.04233,-0.99054 7.49193,-2.22804 2.4496,-1.2375 5.45899,-3.76279 6.68754,-5.61175 1.22855,-1.84897 2.5279,-4.92987 2.88746,-6.84646 0.36094,-1.924 0.10308,-5.32262 -0.57574,-7.58834 -0.67622,-2.257 -2.6694,-5.54355 -4.4293,-7.30345 -1.7599,-1.7599 -5.04645,-3.75308 -7.30345,-4.4293 -2.25699,-0.67621 -5.60954,-0.94494 -7.45009,-0.59718 -1.84055,0.34776 -4.81307,1.52688 -6.6056,2.62025 -1.79253,1.09337 -4.15372,3.45456 -5.24709,5.24709 -1.09337,1.79253 -2.27249,4.76505 -2.62025,6.6056 -0.34776,1.84055 -0.12426,5.04213 0.49667,7.1146 0.62093,2.07248 2.10628,5.01061 3.30079,6.52917 1.1945,1.51857 4.00719,3.59461 6.25042,4.61344 2.24323,1.01882 5.44575,1.86229 7.11671,1.87437 z M 446.5,599.86219 c -1.24031,0 -2.81055,-0.66927 -3.48943,-1.48727 -0.67888,-0.81799 -0.95387,-2.21809 -0.61111,-3.11134 0.47813,-1.24596 0.21315,-1.45941 -1.13812,-0.9168 -0.96874,0.389 -2.43634,0.92677 -3.26134,1.19505 -0.825,0.26827 -0.45539,-0.43553 0.82136,-1.56401 1.27674,-1.12848 3.97674,-2.34565 6,-2.70482 2.02325,-0.35917 4.91614,-1.80773 6.42864,-3.21902 1.5125,-1.41128 2.75,-2.2272 2.75,-1.81314 0,0.41406 -0.48646,1.66179 -1.08102,2.77274 -0.59456,1.11095 -0.82232,2.2786 -0.50613,2.59479 0.31619,0.31619 1.53745,-0.28485 2.71392,-1.33564 2.12822,-1.90089 2.13525,-1.89841 1.39073,0.49073 -0.61086,1.96022 -0.45159,2.28742 0.8671,1.78139 1.00811,-0.38685 1.6154,-0.0991 1.6154,0.76539 0,0.76191 0.5625,1.64707 1.25,1.96703 0.6875,0.31997 -0.1,0.38473 -1.75,0.14393 -1.65,-0.2408 -4.24398,-0.74378 -5.76441,-1.11774 -2.292,-0.56374 -2.65738,-0.40103 -2.13812,0.95213 0.34445,0.89764 0.0708,2.30134 -0.60804,3.11933 -0.67888,0.818 -2.24912,1.48727 -3.48943,1.48727 z"
       id="path2902"
       sodipodi:nodetypes="cccccssssssccscccscccccssccccccccssccccccsssssssssssssssssscccssssssscccccccsssscccccsccscccssssssssssssccccscccssssssssssssscccscccssssssssssssccccssscccscccsscccsscccsssssssssscccssscccsscccsssscccsscccssssscccsscccsscccsssscccsssssscccsssssssssssscccssssssssscccssssssssssssssssssssssssssscccsscccsscccsscccsscccssscccscccssssssssscccsssssssssssssssssssssssssssscccssscccsssssscccsscccsscccsssssssssssscccsssssscccccssssssscccsssssssssssscccssssssssssssssssssc" />
    <path
       style="fill:#000000;fill-rule:evenodd"
       d="m 540.98888,541.27099 1.15829,-3.86602 c 0.63706,-2.12631 1.15829,-4.15696 1.15829,-4.51256 l 2.50002,-4.62498 2.84276,-4.49968 c 1.56351,-2.47483 4.71351,-6.1018 7,-8.05995 5.49663,-4.70731 18.19542,-10.99152 25.11306,-12.42762 3.0493,-0.63303 5.54418,-1.23252 5.54418,-1.33222 0,-0.0997 -2.68747,-5.33031 -5.97216,-11.62361 -3.28469,-6.29329 -5.84169,-11.57282 -5.68224,-11.73228 0.15946,-0.15945 5.65943,2.13296 12.22216,5.09425 13.6113,6.14182 35.94558,14.58469 38.58146,14.58469 l 5.85078,1.63476 5.25,1.62428 c 15.82101,4.89482 31.97111,7.69115 44.59267,7.72115 l 8.34267,0.0198 -4.72489,5.25 c -6.71988,7.46671 -7.34265,9.18203 -4.45116,12.25989 2.26583,2.41191 4.0727,5.49011 4.0727,5.49011 l 1.80142,4.25 1.80143,4.25 1.52776,3.5 0.99833,4.25 c 0.58363,2.4846 0.77768,11.72699 0.46715,22.25 -0.44519,15.08611 -0.95617,19.61883 -3.15646,28 -1.44391,5.5 -3.22691,11.35 -3.96222,13 -0.73532,1.65 -1.65311,4.04651 -2.03954,5.32558 -0.71431,2.3643 -12.22985,22.81735 -15.15907,26.92442 l -1.60473,2.25 c 0,0 -5.41378,5.48575 -6.28126,7.07445 -0.86748,1.5887 -0.39077,3.99144 -0.05,7.62234 1.07989,11.50633 2.51429,47.29832 1.95404,48.75831 -0.81456,2.12269 -8.04979,6.5449 -10.7082,6.5449 -1.30472,0 -3.78102,0.49111 -5.50289,1.09136 -1.72187,0.60025 -6.62652,1.67911 -10.89922,2.39748 l 2e-5,0 3.1e-4,4.3e-4 c -10.76329,1.80962 -25.49842,1.85978 -29.70747,0.10113 -2.55886,-1.06916 -6.2918,-1.27563 -15.44152,-0.85408 -9.98507,0.46005 -12.84969,0.25699 -16.60461,-1.17703 -9.76342,-3.72868 -8.38418,-11.4706 2.47303,-13.88161 5.26485,-1.16914 5.50899,-1.36734 6.09041,-4.94433 0.33314,-2.04951 1.30363,-4.51535 2.15664,-5.47965 2.44119,-2.75968 3.70545,-11.49978 4.0507,-28.00327 l 0.31902,-15.25 0.67383,-4 -0.6306,-5.25 c -0.34683,-2.8875 -0.63429,-8.66627 -0.63929,-12.84171 l -0.009,-7.59171 -4.25,-1.24553 c -6.15127,-1.80272 -15.76435,-7.39302 -19.33504,-11.24391 -4.81042,-5.18792 -12.52945,-15.85322 -13.93281,-19.25083 -0.7525,-1.82185 -1.27667,-7.43866 -1.28567,-13.77408 -0.0137,-9.77902 -0.22566,-10.98137 -2.46765,-14 -2.98769,-4.02265 -4.72883,-8.97542 -4.72883,-13.45145 l 0,-3.35078 0.6834,-3.00044 z m 67.1466,176.96952 c -5.42906,-1.50791 -8.6049,-4.39444 -7.25858,-6.59734 0.5893,-0.96422 2.3893,-2.14269 4,-2.61881 1.61071,-0.47612 6.31166,-1.96541 10.44656,-3.30952 8.08987,-2.62973 11.47326,-2.96796 15.26575,-1.52606 3.06076,1.1637 13.71625,9.09313 13.71625,10.20713 0,0.96359 -1.51013,1.36117 -12.5,3.29089 -9.73209,1.70887 -18.75136,1.91986 -23.66998,0.55371 z m 20.16998,-4.51917 c 0,-3.06649 -3.02011,-7.45034 -5.13267,-7.45034 -1.58573,0 -1.91242,0.41669 -1.37204,1.75 0.3901,0.9625 1.15727,2.9875 1.70482,4.5 1.07363,2.96571 4.79989,3.89756 4.79989,1.20034 z m 5.61906,-2.60503 c -0.79066,-3.95333 -2.32537,-5.84531 -4.7415,-5.84531 -2.23707,0 -2.32049,0.8303 -0.34576,3.44113 0.80751,1.06762 1.4682,2.75512 1.4682,3.75 0,1.17767 0.74151,1.80887 2.125,1.80887 1.85093,0 2.04363,-0.40687 1.49406,-3.15469 z m -57.78904,5.1242 c -2.01848,-0.56063 -4.71848,-1.87993 -6,-2.93177 -3.38171,-2.77565 -1.45367,-5.16919 5.77435,-7.1685 3.2426,-0.89692 8.37063,-2.58419 11.39563,-3.74949 6.93087,-2.66995 10.84478,-2.67301 16.50389,-0.0129 4.90051,2.30352 5.07475,3.43448 0.62962,4.08688 -2.02985,0.29792 -3.22748,-0.11454 -4.02071,-1.3847 -0.62136,-0.99496 -2.02593,-1.80901 -3.12127,-1.80901 -2.27953,0 -2.55024,1.04084 -0.74153,2.851 0.6875,0.68805 1.25,3.14055 1.25,5.45 0,3.86148 -0.24115,4.2487 -3,4.81736 -4.93892,1.01801 -14.7505,0.93979 -18.66998,-0.14885 l 0,-2e-5 z m 20.16998,-4.51917 c 0,-3.06649 -3.02011,-7.45034 -5.13267,-7.45034 -1.58573,0 -1.91242,0.41669 -1.37204,1.75 0.3901,0.9625 1.15727,2.9875 1.70482,4.5 1.07363,2.96571 4.79989,3.89756 4.79989,1.20034 z m 45.17744,-3.39773 c -8.47171,-7.14346 -14.90314,-8.50071 -24.67744,-5.20779 -4.90716,1.6532 -5.06254,1.6427 -8.3685,-0.56589 -3.79033,-2.53217 -9.24478,-4.26503 -13.45105,-4.27335 -2.35074,-0.005 -2.76642,-0.37969 -2.5,-2.25558 0.26483,-1.8647 1.03771,-2.30219 4.51333,-2.55475 2.48091,-0.18028 5.48,0.36037 7.34293,1.32374 1.73203,0.89566 3.32915,1.44848 3.54916,1.22847 0.6063,-0.60629 -8.06898,-4.74746 -9.9454,-4.74746 -1.95251,0 -1.9925,-0.95828 -0.47779,-11.4481 l 1.16269,-8.0519 13.87322,0.32621 c 13.51051,0.31768 24.45636,-1.06581 39.14877,-4.94819 2.11604,-0.55915 4.08525,-0.77874 4.37601,-0.48798 0.29076,0.29076 0.49874,9.58106 0.46218,20.64512 -0.0696,21.0423 -0.3037,22.25125 -4.65083,24.01332 -3.75413,1.52169 -5.65011,0.97327 -10.35728,-2.99587 z m 7.82256,-3.55261 c 0,-0.275 -0.225,-0.5 -0.5,-0.5 -0.275,0 -0.5,0.225 -0.5,0.5 0,0.275 0.225,0.5 0.5,0.5 0.275,0 0.5,-0.225 0.5,-0.5 z m -6.10255,-4.80839 c -6.22889,-6.1212 -10.64131,-7.38428 -19.00849,-5.44131 l -6.38896,1.4836 8.5,-0.47247 c 7.75719,-0.43118 8.78047,-0.26663 11.70941,1.88305 9.417,6.91153 9.84111,7.11975 5.18804,2.54713 z m -26.16828,-3.29578 c -0.3323,-0.33229 -1.1948,-0.36781 -1.91667,-0.0789 -0.79773,0.31922 -0.56078,0.55618 0.60417,0.60416 1.05416,0.0434 1.64479,-0.19293 1.3125,-0.52522 l 0,-4e-5 z M 603.30546,688.271 c 0,-0.55 -0.675,-1 -1.5,-1 -0.825,0 -1.5,0.45 -1.5,1 0,0.55 0.675,1 1.5,1 0.825,0 1.5,-0.45 1.5,-1 z m 1,-12 c 0,-0.55 -0.675,-1 -1.5,-1 -0.825,0 -1.5,0.45 -1.5,1 0,0.55 0.675,1 1.5,1 0.825,0 1.5,-0.45 1.5,-1 z m -21,22.07143 c 0,-2.76777 2.69492,-5.07143 5.93276,-5.07143 2.38744,0 2.72523,0.33825 2.34165,2.34487 -0.32249,1.68697 -1.476,2.63351 -4.11133,3.37363 -2.01469,0.56582 -3.77558,1.08563 -3.91308,1.15513 -0.1375,0.0695 -0.25,-0.74149 -0.25,-1.8022 z m 5.60511,-17.82143 c 0.36752,-5.9125 0.75875,-10.86453 0.8694,-11.00451 0.19852,-0.25115 6.71438,1.80149 7.35672,2.31753 0.18217,0.14635 -0.23311,4.57955 -0.92285,9.85154 l -1.25408,9.58544 -3.35871,0 -3.35871,0 0.66823,-10.75 z m 18.97668,-12.85698 c -0.91863,-0.35251 -1.58179,-1.77502 -1.58179,-3.39302 0,-3.23794 1.42886,-4 7.5,-4 2.38503,0 5.04823,0.27314 5.91821,0.60699 1.89076,0.72555 2.15061,5.99682 0.33179,6.73073 -1.80794,0.72952 -10.31053,0.76815 -12.16821,0.0553 z m -14.88384,-12.48478 c -2.34482,-1.06837 -2.40901,-1.43729 -2.99592,-17.2178 -0.32987,-8.86932 -0.48497,-16.24083 -0.34467,-16.38113 0.1403,-0.14031 2.02162,0.23266 4.18071,0.82881 2.34176,0.64659 8.97629,0.89259 16.44378,0.60971 14.41629,-0.54612 22.3718,-2.65506 30.97453,-8.2111 3.00101,-1.93818 5.76275,-3.18934 6.13721,-2.78035 1.91992,2.09698 7.31451,31.97773 6.70524,37.1404 -0.35018,2.96719 -2.09878,3.52811 -17.29883,5.54919 -12.50686,1.66298 -40.51797,1.95859 -43.80205,0.46227 z m 30.83538,-8.37491 c 4.57273,-4.57272 4.79423,-9.44614 0.60723,-13.36025 -7.20337,-6.73391 -8.16676,-7.39674 -9.40032,-6.46756 -0.68213,0.51383 -3.19838,1.55237 -5.59166,2.30788 -5.87112,1.8534 -10.14858,5.96411 -10.14858,9.75295 0,6.31387 7.07529,11.23365 16.15546,11.23365 4.27048,0 5.36348,-0.45227 8.37787,-3.46667 z m -18.02422,0.40162 c -3.93972,-1.91417 -6.00262,-6.22297 -4.87004,-10.17205 0.47351,-1.65104 1.31093,-3.01597 1.86093,-3.03316 0.55,-0.0172 1.49423,-0.70718 2.0983,-1.53328 0.60406,-0.82611 1.61656,-1.1817 2.25,-0.79022 0.63343,0.39149 1.1517,0.20868 1.1517,-0.40624 0,-0.61492 0.45,-0.83992 1,-0.5 0.55,0.33992 1,0.14148 1,-0.44098 0,-0.58246 0.47656,-1.05902 1.05902,-1.05902 0.58246,0 0.78194,0.44831 0.4433,0.99624 -0.33864,0.54793 -0.78071,1.85305 -0.98239,2.90027 -0.3257,1.69121 0.53377,2.00519 3.23007,1.18 1.90781,-0.58388 2.50102,1.87663 0.78346,3.24962 -0.63178,0.50504 -0.45045,0.66514 0.46654,0.41193 1.01088,-0.27914 1.46692,-1.60829 1.39857,-4.07613 -0.0824,-2.97344 0.25775,-3.66193 1.80901,-3.66193 1.05075,0 1.63234,0.45 1.29242,1 -0.34131,0.55226 0.3785,1 1.60765,1 1.22413,0 1.96318,0.2625 1.64235,0.58333 -0.32083,0.32084 0.32983,1.4965 1.44591,2.61258 2.5056,2.5056 1.96933,7.63885 -1.12086,10.72904 -1.14128,1.14128 -2.07505,1.76005 -2.07505,1.37505 0,-0.385 -0.5194,-0.1806 -1.15423,0.45423 -1.53308,1.53308 -10.55636,1.01744 -14.33666,-0.81928 z m 5.75756,-10.05904 c -0.67834,-0.68342 -1.48524,-0.99067 -1.79313,-0.68278 -0.30789,0.30789 0.24711,0.86705 1.23333,1.24258 1.4252,0.54268 1.54006,0.42782 0.5598,-0.5598 z m 7.73333,-0.37591 c 0,-0.275 -0.225,-0.5 -0.5,-0.5 -0.275,0 -0.5,0.225 -0.5,0.5 0,0.275 0.225,0.5 0.5,0.5 0.275,0 0.5,-0.225 0.5,-0.5 z m -11,0 c 0,-0.275 -0.225,-0.5 -0.5,-0.5 -0.275,0 -0.5,0.225 -0.5,0.5 0,0.275 0.225,0.5 0.5,0.5 0.275,0 0.5,-0.225 0.5,-0.5 z m 4,-3 c 0,-0.275 0.225,-0.5 0.5,-0.5 0.275,0 0.5,0.225 0.5,0.5 0,0.275 -0.225,0.5 -0.5,0.5 -0.275,0 -0.5,-0.225 -0.5,-0.5 z m 0,-2.04422 c 0,-0.11599 0.6,-0.70885 1.33333,-1.31746 0.99637,-0.82691 1.33334,-0.77361 1.33334,0.21089 0,0.7246 -0.6,1.31746 -1.33334,1.31746 -0.73333,0 -1.33333,-0.0949 -1.33333,-0.21089 z m -28,-15.98776 c -7.89434,-2.94756 -16.08069,-7.7961 -19.74036,-11.69165 l -2.18116,-2.32174 4.02534,0.38388 c 8.33251,0.79463 18.08751,-5.82817 20.83161,-14.14286 1.111,-3.36637 1.48122,-3.60379 6.62069,-4.24593 2.99413,-0.37409 7.89363,-0.37409 10.88776,0 5.12423,0.64023 5.51211,0.8869 6.60586,4.201 1.58654,4.80727 6.6113,10.2899 11.44168,12.4843 16.03543,7.28474 33.72147,-9.71999 26.95553,-25.91714 -5.68166,-13.60148 -22.2371,-17.34141 -32.82305,-7.41483 -3.14247,2.94673 -6.5672,9.53322 -6.60194,12.69695 -0.0206,1.87746 -0.69595,2 -11.02196,2 -9.88505,0 -11,-0.18063 -11,-1.78212 0,-0.98016 -0.69887,-3.45516 -1.55305,-5.5 -5.61175,-13.43411 -22.37224,-17.36699 -32.53374,-7.6341 l -2.58679,2.47768 0.72359,-5.33222 c 1.1909,-8.77578 4.63566,-15.43427 10.30216,-19.91338 4.85749,-3.83963 12.51719,-8.28517 13.15622,-7.63562 0.17302,0.17587 -0.74302,2.91593 -2.03564,6.08904 -4.0713,9.99418 -4.21835,9.30006 2.25509,10.64457 15.32392,3.18271 37.66288,2.34718 59.85166,-2.23858 l 11.0795,-2.28981 1.1415,6.65671 c 1.44695,8.43797 4.03392,14.46545 9.22367,21.49054 l 4.10628,5.55847 -1.64508,4.95288 c -4.34418,13.07908 -18.83082,26.00904 -33.52362,29.9213 -6.12052,1.62971 -9.88834,1.92538 -20.96175,1.64491 -11.83427,-0.29973 -14.42541,-0.68745 -21,-3.14225 z m 19.30626,-11.58681 c 0.75975,-1.21655 2.32645,-1.88121 4.43429,-1.88121 1.7927,0 3.25968,-0.3375 3.25997,-0.75 2.8e-4,-0.4125 -5.62429,-0.75 -12.49905,-0.75 -6.87476,0 -12.5,0.3375 -12.50052,0.75 -5.2e-4,0.4125 1.2408,0.75 2.7585,0.75 1.6469,0 3.24736,0.78126 3.9696,1.93774 1.66546,2.66683 8.90059,2.62817 10.57721,-0.0565 l 0,-3e-5 z m -4.30626,-0.38121 c 0,-0.825 0.675,-1.5 1.5,-1.5 0.825,0 1.5,0.675 1.5,1.5 0,0.825 -0.675,1.5 -1.5,1.5 -0.825,0 -1.5,-0.675 -1.5,-1.5 z m -5,0 c 0,-0.825 0.675,-1.5 1.5,-1.5 0.825,0 1.5,0.675 1.5,1.5 0,0.825 -0.675,1.5 -1.5,1.5 -0.825,0 -1.5,-0.675 -1.5,-1.5 z m 28.96996,-6.75 c -7.71271,-3.89634 -11.38626,-12.07946 -8.99926,-20.04655 2.38411,-7.95744 11.45768,-13.78956 19.18284,-12.32993 16.88654,3.19062 19.92827,25.68894 4.42506,32.73015 -5.41131,2.45769 -9.22645,2.36533 -14.60864,-0.35367 z m 10.01947,-9.23727 c 0.67888,-0.81799 0.95249,-2.22169 0.60804,-3.11933 -0.51926,-1.35316 -0.15389,-1.51587 2.13812,-0.95213 4.12463,1.01448 8.94369,1.639 7.51441,0.97381 -0.6875,-0.31996 -1.25,-1.20512 -1.25,-1.96703 0,-0.8645 -0.60729,-1.15224 -1.6154,-0.76539 -1.31869,0.50603 -1.47796,0.17883 -0.8671,-1.78139 0.74452,-2.38914 0.73749,-2.39162 -1.39073,-0.49073 -2.53682,2.26583 -3.73009,1.58529 -2.20779,-1.25915 1.7912,-3.34688 1.23329,-3.66765 -1.66898,-0.9596 -1.5125,1.41129 -4.40539,2.85985 -6.42864,3.21902 -2.02326,0.35917 -4.72326,1.57634 -6,2.70482 -2.36984,2.09462 -1.83202,2.12702 2.93998,0.1771 0.83141,-0.33973 1.04891,0.0382 0.63812,1.10866 -0.83661,2.18019 1.31987,4.59861 4.10054,4.59861 1.24031,0 2.81056,-0.66927 3.48943,-1.48727 z m -73.01947,9.23727 c -7.71271,-3.89634 -11.38626,-12.07946 -8.99926,-20.04655 2.38411,-7.95744 11.45768,-13.78956 19.18284,-12.32993 16.88654,3.19062 19.92827,25.68894 4.42506,32.73015 -5.41131,2.45769 -9.22645,2.36533 -14.60864,-0.35367 z m 12.01947,-9.23727 c 0.67888,-0.81799 0.9731,-2.16799 0.65383,-3 -0.68907,-1.7957 -0.19833,-1.88016 2.50813,-0.43171 1.11095,0.59456 2.25711,0.84381 2.54704,0.55389 0.7989,-0.79891 -5.92442,-4.6269 -8.13398,-4.63117 -1.06455,-0.002 -3.04051,-1.01624 -4.39102,-2.25374 l -2.45548,-2.25 0.71601,2.97285 0.71601,2.97284 -2.24455,-1.97284 c -2.14749,-1.88754 -2.21455,-1.89092 -1.55088,-0.0782 0.43481,1.18756 0.0671,2.58703 -0.98542,3.75 -1.50598,1.66409 -1.51455,1.85538 -0.0831,1.85538 0.87778,0 1.87408,-0.45 2.214,-1 1.00607,-1.62786 3.50599,-1.17917 2.85674,0.51273 -0.79936,2.08302 1.42055,4.48724 4.14324,4.48724 1.24031,0 2.81055,-0.66927 3.48943,-1.48727 z"
       id="path3769"
       sodipodi:nodetypes="cccccssssssccccccscccccssssccssssscccsssssscccccccssssccccssssscccsscccssscccsssssssssccccsscccssssssscccsssscccsscccccscccsccccsscccsscccssscccscccccccssscccssssssscccsssscccssssssssssssssssssssscccscccsscccsscccsscccsscccccssssssssssscccssssccccccsscccsssssccccsscccsscccsscccssssssssssssscccsscccssscccccsssssscc" />
    <path
       style="fill:#000000"
       d="m 17.33068,315.17259 c -7.28119,-3.43142 -8.4236397,-9.34071 -2.38822,-12.35312 3.99975,-1.99636 4.22403,-2.33221 6.86656,-10.28179 5.49081,-16.51817 6.70958,-25.67946 5.71357,-42.94798 -0.56204,-9.74433 -1.03698,-12.55202 -2.12328,-12.55202 -1.14178,0 -1.39931,-2.9962 -1.39931,-16.27986 0,-21.00718 2.97705,-44.84213 7.83391,-62.72014 5.05736,-18.61603 8.72208,-29.25631 12.68312,-36.82464 C 49.35947,111.96063 50.56,110.31856 60.5,99.35183 64.28813,95.17241 66.43214,91.95895 66.31591,90.63487 66.21466,89.48142 65.80895,84.14164 65.41435,78.76869 64.76477,69.92423 64.49828,68.96245 62.59844,68.60605 49.84651,66.21384 40.35555,63.82649 33.83251,61.37029 30.07703,59.9562 29.05207,59.04804 28.58697,56.72253 c -0.31793,-1.58964 -0.3285,-3.29404 -0.0235,-3.78755 0.30501,-0.49352 4.6905,-0.89963 9.74554,-0.90247 5.05504,-0.003 13.5279,-0.29239 18.82858,-0.64344 l 9.6376,-0.63827 3.03415,-12.10656 c 1.66879,-6.6586 3.57032,-15.14406 4.22563,-18.85656 0.65532,-3.7125 1.70303,-6.74721 2.32825,-6.7438 0.62522,0.003 5.86177,1.39835 11.63677,3.09988 13.91158,4.09886 16.75755,4.09792 26.65559,-0.009 4.48557,-1.86106 8.81661,-3.13009 9.62453,-2.82006 0.8477,0.32529 1.77474,2.60618 2.19202,5.39322 0.78087,5.21551 4.0692,19.27035 5.45828,23.32953 0.47053,1.375 1.41527,5.04464 2.09941,8.15475 1.21083,5.50441 1.39314,5.72831 6.85704,8.42133 5.64255,2.78108 19.20561,5.271 29.28134,5.3755 2.56752,0.0266 5.38002,0.32156 6.25,0.65541 1.71414,0.65777 2.1272,2.93789 0.69282,3.82439 -2.21767,1.3706 -16.67248,3.74345 -27.40828,4.49926 -6.48849,0.45679 -12.00046,1.03373 -12.24881,1.28209 -0.24836,0.24835 -0.93456,4.23959 -1.52489,8.86941 -1.28053,10.04278 -3.51455,21.68139 -5.37657,28.01037 -2.87857,9.78423 -10.02529,20.54927 -15.5332,23.39752 -2.14179,1.10756 -3.13164,2.66951 -4.10939,6.48448 -1.40021,5.46335 -1.57755,5.58967 -5.40147,3.84737 -1.77696,-0.80963 -2.38174,-1.66976 -1.9336,-2.75 1.05897,-2.55268 1.76446,-5.6118 1.16966,-5.07188 -0.30295,0.275 -1.91681,4.55 -3.58636,9.5 -3.41238,10.11732 -9.25682,23.5 -10.26284,23.5 -0.36411,0 -0.94703,-1.0125 -1.29539,-2.25 -1.6024,-5.69241 -6.97619,-31.03707 -8.05622,-37.99592 -0.6612,-4.26026 -1.54059,-8.08434 -1.95421,-8.49795 -0.41361,-0.41362 -0.52009,0.37205 -0.23662,1.74592 1.94339,9.41874 2.25708,8.7292 -4.98929,10.96738 -3.61582,1.11681 -7.13138,2.03057 -7.81234,2.03057 -0.68098,0 -3.06239,-2.16346 -5.29204,-4.80769 -4.64699,-5.51106 -4.87964,-4.37418 3.47222,-16.96761 5.17414,-7.80188 5.44992,-8.52996 4.82058,-12.72669 -0.36714,-2.44827 -1.01698,-4.66737 -1.4441,-4.93134 -1.2627,-0.78036 -8.5593,7.39772 -13.32371,14.93336 -14.68458,23.22587 -22.42539,52.67477 -26.35212,100.25325 -1.8773,22.74653 -1.77964,23.24675 4.53858,23.24675 l 3.72574,0 0.59304,-14.75 c 0.32617,-8.1125 1.32079,-21.275 2.21026,-29.25 2.42034,-21.70082 11.0572,-53.78387 16.37758,-60.83726 l 1.75142,-2.3219 3.63865,4.44049 3.63864,4.44049 -2.50003,1.13909 c -1.37501,0.6265 -3.15385,1.13909 -3.95297,1.13909 -0.79912,0 -1.44092,0.3375 -1.42621,0.75 0.0147,0.4125 7.43971,9.74135 16.5,20.73078 L 90,180.49924 l 0.0989,23.01922 c 0.0544,12.66057 0.41596,25.49422 0.80349,28.51922 0.38753,3.025 0.50155,-7.20878 0.25337,-22.74172 l -0.45123,-28.24173 8.23712,-9.25827 8.23712,-9.25828 -8.08215,8.5 c -7.98344,8.39619 -8.08224,8.46103 -8.08938,5.3092 -0.004,-1.75494 1.75423,-6.98607 3.90715,-11.62474 2.15291,-4.63866 4.73456,-10.8528 5.73699,-13.8092 1.00243,-2.95639 1.92653,-5.54833 2.05355,-5.75986 0.12702,-0.21153 1.65271,0.20431 3.39042,0.9241 l 3.15949,1.3087 -0.62375,6.5759 c -0.34307,3.61674 -0.8814,7.7009 -1.1963,9.0759 -1.00943,4.40762 -0.63888,42.13435 0.55357,56.36111 0.79245,9.45448 0.83124,14.15133 0.12392,15.0036 -0.71869,0.86597 -0.59399,2.0804 0.41289,4.02117 3.01719,5.81564 6.44472,23.61173 5.31911,27.61735 -0.38589,1.37322 -1.6869,6.99677 -2.89113,12.49677 -1.20423,5.5 -3.03633,12.10842 -4.07133,14.68538 -1.035,2.57696 -1.88182,4.89327 -1.88182,5.14735 0,0.89275 12.73426,2.66727 19.14078,2.66727 7.43119,0 10.21675,1.44146 9.70419,5.02167 -0.48945,3.41876 -5.69623,6.53512 -13.32335,7.97425 -8.35246,1.576 -15.65566,0.64997 -22.02162,-2.79228 -4.2015,-2.27187 -5.04945,-3.21465 -5.30962,-5.90346 -0.2685,-2.77489 0.20717,-3.52606 3.58189,-5.65642 3.07873,-1.94352 4.3306,-3.67708 5.99387,-8.30018 1.82597,-5.07533 2.62342,-9.50134 4.70716,-26.12571 0.4842,-3.86302 -0.79894,-12.43616 -2.93542,-19.61271 -2.31289,-7.76914 -2.30149,-7.76113 -8.57557,-6.02224 C 84.9812,242.66407 45.64373,242.5839 35,239.49637 c -1.29545,-0.37579 -1.5,2.12018 -1.5,18.30309 0,19.89807 -0.26476,21.46621 -5.52738,32.73822 -1.54069,3.3 -3.06049,7.18614 -3.37734,8.63588 -0.74088,3.38983 0.82133,3.83246 13.58962,3.85047 10.84138,0.0153 14.8151,1.04362 14.8151,3.83391 0,7.29441 -25.31347,13.19507 -35.66932,8.31465 z m 17.79664,-7.9356 c 0.53884,-1.46582 0.48775,-2.07944 -0.14079,-1.69098 C 34.44394,305.88135 34,306.80416 34,307.5967 c 0,1.04116 -1.24858,1.44098 -4.5,1.44098 -4.55297,0 -5.6587,-1.20042 -3.50357,-3.80357 0.54803,-0.66197 0.2615,-0.56186 -0.63675,0.22246 -2.99236,2.61283 -0.93303,4.72781 4.27091,4.38632 3.7954,-0.24906 4.80657,-0.72844 5.49673,-2.6059 z m 80,-3 c 0.53884,-1.46582 0.48775,-2.07944 -0.14079,-1.69098 -0.54259,0.33534 -0.98653,1.25815 -0.98653,2.05069 0,1.04116 -1.24858,1.44098 -4.5,1.44098 -4.55297,0 -5.6587,-1.20042 -3.50357,-3.80357 0.54803,-0.66197 0.2615,-0.56186 -0.63675,0.22246 -2.99236,2.61283 -0.93303,4.72781 4.27091,4.38632 3.7954,-0.24906 4.80657,-0.72844 5.49673,-2.6059 z M 95.01853,125.72024 C 88.14371,115.5337 85.44459,105.87218 83.6575,85.05341 L 82.5,71.56914 l -4,-0.7081 c -2.2,-0.38945 -5.2375,-0.73403 -6.75,-0.76573 -2.72576,-0.0571 -2.75,7e-5 -2.75,6.48731 0,8.18755 3.89009,24.16451 8.04994,33.06188 3.48451,7.4529 12.60387,17.87547 17.45006,19.94378 1.65,0.70421 3.13363,1.14728 3.29696,0.9846 0.16332,-0.16268 -1.08697,-2.34637 -2.77843,-4.85264 z M 117,108.53768 c -0.86377,-1.04078 -3.15985,-1.5 -7.5,-1.5 -4.34015,0 -6.63623,0.45922 -7.5,1.5 -1.09043,1.31388 -0.15985,1.5 7.5,1.5 7.65985,0 8.59043,-0.18612 7.5,-1.5 z m -10.76791,-0.21453 c 1.50265,-0.22817 4.20265,-0.23276 6,-0.0102 1.79735,0.22256 0.56791,0.40925 -2.73209,0.41486 -3.3,0.006 -4.77056,-0.17648 -3.26791,-0.40466 z m 19.58641,-9.82421 c 5.59868,-1.66263 6.86517,-3.46355 2.4315,-3.45752 -2.51544,0.003 -9.25,3.26627 -9.25,4.48156 0,0.81366 1.2752,0.62214 6.8185,-1.02404 z M 99.62535,97.17619 C 96.93079,94.19873 90.4767,91.70122 87.44393,92.4624 c -1.47396,0.36994 -2.36811,0.98443 -1.98701,1.36554 1.04445,1.04444 11.77072,4.96186 13.94807,5.09407 1.79488,0.10898 1.80761,0.008 0.22036,-1.74582 z M 103,69.18146 C 103,68.71054 99.2875,68.01585 94.75,67.63772 76.14179,66.087 40.86803,59.0136 33.80675,55.41686 c -1.76202,-0.89751 -2.91101,-1.01949 -3.32306,-0.35279 -0.63122,1.02134 8.33986,5.52477 14.01631,7.0361 1.65,0.43931 5.475,1.49866 8.5,2.35413 4.66249,1.31854 10.6695,2.45301 26,4.9103 4.97447,0.79734 24,0.65216 24,-0.18314 z M 102.29025,56.05671 C 94.63239,55.18444 93,53.92961 93,48.91524 l 0,-3.87756 10.25,-0.0576 c 5.6375,-0.0317 12.05,-0.42994 14.25,-0.885 2.94811,-0.60979 0.44988,-0.86172 -9.5,-0.95799 C 95.6408,43.01751 83.95328,41.38507 82.2039,39.53405 81.81675,39.12441 82.4,39.05958 83.5,39.38996 c 1.1,0.33039 3.6875,0.86405 5.75,1.18592 l 3.75,0.5852 0.16667,-6.56168 c 0.0917,-3.60893 0.20416,-7.34919 0.25,-8.31169 0.0563,-1.1829 -2.18505,-2.95496 -6.91667,-5.46838 -3.85,-2.04511 -7.5625,-3.73261 -8.25,-3.75 C 77.51343,17.05073 77,18.3042 77,20.1211 c 0,3.06128 -2.50326,14.20083 -5.64041,25.09991 -1.92759,6.69686 -1.43524,7.57371 5.65827,10.07704 3.27942,1.15732 8.10467,1.56624 17.98214,1.52389 10.68297,-0.0458 12.20422,-0.20547 7.29025,-0.7652 z m 10.89725,0.29786 c -0.72188,-0.28887 -1.58438,-0.25335 -1.91667,0.0789 -0.33229,0.33229 0.25834,0.56864 1.3125,0.52522 1.16495,-0.048 1.4019,-0.28494 0.60417,-0.60417 z M 121.39301,21.4559 C 121.72686,20.58591 122,19.03772 122,18.01547 c 0,-1.76233 -0.23301,-1.74514 -4.49687,0.33179 -6.1915,3.01588 -5.97421,3.47695 2.13988,4.54059 0.62866,0.0824 1.41616,-0.56197 1.75,-1.43195 z M 76,162.36218 c -16.34879,-19.8327 -17.47895,-21.47696 -15.5168,-22.57504 1.06162,-0.59411 19.33068,-6.70823 20.15022,-6.74369 0.0734,-0.003 0.3558,1.00673 0.62759,2.24423 0.2718,1.2375 1.67299,7.65 3.11377,14.25 1.44078,6.6 3.33545,14.71201 4.21038,18.02668 0.87493,3.31468 1.4387,7.18498 1.25281,8.60067 C 89.54194,178.41958 87.82462,176.70662 76,162.36218 z"
       id="path2854" />
    <path
       id="path2856"
       d="m 207.76839,84.18872 c 0,0 -0.9489,-6.05129 -1.3435,-11.42424 -0.64958,-8.84446 -0.91607,-9.80624 -2.81591,-10.16264 -12.75193,-2.39221 -22.24289,-4.77956 -28.76593,-7.23576 -3.75548,-1.41409 -4.78044,-2.32225 -5.24554,-4.64776 -0.31793,-1.58964 -0.3285,-3.29404 -0.0235,-3.78755 0.30501,-0.49352 4.6905,-0.89963 9.74554,-0.90247 5.05504,-0.003 13.5279,-0.29239 18.82858,-0.64344 l 9.6376,-0.63827 3.03415,-12.10656 c 1.66879,-6.6586 3.57032,-15.14406 4.22563,-18.85656 0.65532,-3.7125 1.70303,-6.7472099 2.32825,-6.7437999 0.62522,0.003 5.86177,1.39835 11.63677,3.0998799 13.91158,4.09886 16.75755,4.09792 26.65559,-0.009 4.48557,-1.8610599 8.81661,-3.1300899 9.62453,-2.8200599 0.8477,0.32529 1.77474,2.60618 2.19202,5.3932199 0.78087,5.21551 4.0692,19.27035 5.45828,23.32953 0.47053,1.375 1.41527,5.04464 2.09941,8.15475 1.21083,5.50441 1.39314,5.72831 6.85704,8.42133 5.64255,2.78108 19.20561,5.271 29.28134,5.3755 2.56752,0.0266 5.38002,0.32156 6.25,0.65541 1.71416,0.65777 2.12716,2.93789 0.69286,3.82439 -2.21771,1.3706 -16.67252,3.74345 -27.40832,4.49926 -6.48849,0.45679 -12.00046,1.03373 -12.24881,1.28209 -0.24836,0.24835 -0.93456,4.23959 -1.52489,8.86941 -1.28053,10.04278 -3.51455,21.68139 -5.37657,28.01037 -2.87857,9.78423 -9.90029,19.92427 -15.4082,22.77252 -5.05866,2.61593 -9.7758,3.40518 -14.90489,1.75738 -9.63164,-3.09432 -14.24616,-6.09355 -20.64993,-14.36628 -5.59235,-8.48588 -7.39009,-11.90248 -10.03749,-19.75812 -0.36714,-2.44827 -1.35571,-5.19651 -1.35571,-5.19651 l -1.4384,-6.14602 z m 28.26068,35.52731 C 229.15425,109.52949 226.45513,99.86797 224.66804,79.0492 l -1.1575,-13.48427 -4,-0.7081 c -2.2,-0.38945 -5.2375,-0.73403 -6.75,-0.76573 -2.72576,-0.0571 -2.75,7e-5 -2.75,6.48731 0,8.18755 3.89009,24.16451 8.04994,33.06188 3.48451,7.4529 12.60387,17.87547 17.45006,19.94378 1.65,0.70421 3.13363,1.14728 3.29696,0.9846 0.16332,-0.16268 -1.08697,-2.34637 -2.77843,-4.85264 z m 21.98147,-17.18256 c -0.86377,-1.04078 -3.15985,-1.5 -7.5,-1.5 -4.34015,0 -6.63623,0.45922 -7.5,1.5 -1.09043,1.31388 -0.15985,1.5 7.5,1.5 7.65985,0 8.59043,-0.18612 7.5,-1.5 z m -10.76791,-0.21453 c 1.50265,-0.22817 4.20265,-0.23276 6,-0.0102 1.79735,0.22256 0.56791,0.40925 -2.73209,0.41486 -3.3,0.006 -4.77056,-0.17648 -3.26791,-0.40466 z m 19.58641,-9.82421 c 5.59868,-1.66263 6.86517,-3.46355 2.4315,-3.45752 -2.51544,0.003 -9.25,3.26627 -9.25,4.48156 0,0.81366 1.2752,0.62214 6.8185,-1.02404 z m -26.19315,-1.32275 c -2.69456,-2.97746 -9.14865,-5.47497 -12.18142,-4.71379 -1.47396,0.36994 -2.36811,0.98443 -1.98701,1.36554 1.04445,1.04444 11.77072,4.96186 13.94807,5.09407 1.79488,0.10898 1.80761,0.008 0.22036,-1.74582 z m 3.37465,-27.99473 c 0,-0.47092 -3.7125,-1.16561 -8.25,-1.54374 -18.60821,-1.55072 -53.88197,-8.62412 -60.94325,-12.22086 -1.76202,-0.89751 -2.91101,-1.01949 -3.32306,-0.35279 -0.63122,1.02134 8.33986,5.52477 14.01631,7.0361 1.65,0.43931 5.475,1.49866 8.5,2.35413 4.66249,1.31854 10.6695,2.45301 26,4.9103 4.97447,0.79734 24,0.65216 24,-0.18314 z M 243.30079,50.0525 c -7.65786,-0.87227 -9.29025,-2.1271 -9.29025,-7.14147 l 0,-3.87756 10.25,-0.0576 c 5.6375,-0.0317 12.05,-0.42994 14.25,-0.885 2.94811,-0.60979 0.44988,-0.86172 -9.5,-0.95799 -12.3592,-0.11958 -24.04672,-1.75202 -25.7961,-3.60304 -0.38715,-0.40964 0.1961,-0.47447 1.2961,-0.14409 1.1,0.33039 3.6875,0.86405 5.75,1.18592 l 3.75,0.5852 0.16667,-6.56168 c 0.0917,-3.60893 0.20416,-7.34919 0.25,-8.31169 0.0563,-1.1829 -2.18505,-2.95496 -6.91667,-5.46838 -3.85,-2.04511 -7.5625,-3.73261 -8.25,-3.75 -0.73657,-0.0186 -1.25,1.23487 -1.25,3.05177 0,3.06128 -2.50326,14.20083 -5.64041,25.09991 -1.92759,6.69686 -1.43524,7.57371 5.65827,10.07704 3.27942,1.15732 8.10467,1.56624 17.98214,1.52389 10.68297,-0.0458 12.20422,-0.20547 7.29025,-0.7652 l 0,-3e-5 z m 10.89725,0.29786 c -0.72188,-0.28887 -1.58438,-0.25335 -1.91667,0.0789 -0.33229,0.33229 0.25834,0.56864 1.3125,0.52522 1.16495,-0.048 1.4019,-0.28494 0.60417,-0.60417 l 0,5e-5 z m 8.20551,-34.89867 c 0.33385,-0.86999 0.60699,-2.41818 0.60699,-3.44043 0,-1.76233 -0.23301,-1.74514 -4.49687,0.33179 -6.1915,3.01588 -5.97421,3.47695 2.13988,4.54059 0.62866,0.0824 1.41616,-0.56197 1.75,-1.43195 z"
       style="fill:#000000"
       sodipodi:nodetypes="csssssscccssssssssssssssssssccccccccsssssccsssccssccssccsssccsssssscccccsssscccssssssscccsscccsssc" />
    <path
       style="fill:#000000"
       d="m 207.3125,84.625 c 0.11623,1.32408 -2.02437,4.53933 -5.8125,8.71875 -9.94,10.96673 -11.12631,12.62259 -15.96875,21.875 -3.96104,7.56833 -7.63014,18.19647 -12.6875,36.8125 C 167.98689,169.90926 165,193.74282 165,214.75 c 0,13.28366 0.26447,16.28125 1.40625,16.28125 1.0863,0 1.56296,2.81817 2.125,12.5625 0.99601,17.26852 -0.22794,26.41933 -5.71875,42.9375 -2.64253,7.94958 -2.87525,8.28489 -6.875,10.28125 -6.03542,3.01241 -4.87494,8.94358 2.40625,12.375 C 168.6996,314.06792 194,308.13816 194,300.84375 c 0,-2.79029 -3.97112,-3.7972 -14.8125,-3.8125 -12.76829,-0.018 -14.33463,-0.45392 -13.59375,-3.84375 0.31685,-1.44974 1.83431,-5.35625 3.375,-8.65625 5.26262,-11.27201 5.53125,-12.82068 5.53125,-32.71875 0,-16.18291 0.20455,-18.68829 1.5,-18.3125 10.64373,3.08753 49.98764,3.16847 60.96875,0.125 6.27408,-1.73889 6.24961,-1.73789 8.5625,6.03125 2.13648,7.17655 3.4217,15.73073 2.9375,19.59375 -2.08374,16.62437 -2.86153,21.04967 -4.6875,26.125 -1.66327,4.6231 -2.92127,6.36898 -6,8.3125 -3.37472,2.13036 -3.86225,2.88136 -3.59375,5.65625 0.26017,2.68881 1.111,3.63438 5.3125,5.90625 6.36596,3.44225 13.67879,4.35725 22.03125,2.78125 7.62712,-1.43913 12.82305,-4.54999 13.3125,-7.96875 0.51256,-3.58021 -2.25631,-5.03125 -9.6875,-5.03125 -6.40652,0 -19.15625,-1.7635 -19.15625,-2.65625 0,-0.25408 0.84,-2.57929 1.875,-5.15625 1.035,-2.57696 2.88952,-9.1875 4.09375,-14.6875 1.20423,-5.5 2.48911,-11.12678 2.875,-12.5 1.12561,-4.00562 -2.29531,-21.77811 -5.3125,-27.59375 -1.00688,-1.94077 -1.12494,-3.16528 -0.40625,-4.03125 0.70732,-0.85227 0.66745,-5.54552 -0.125,-15 -1.19245,-14.22676 -1.57193,-51.96738 -0.5625,-56.375 0.3149,-1.375 0.84443,-5.44576 1.1875,-9.0625 l 0.625,-6.59375 -3.15625,-1.3125 c -1.73771,-0.71979 -3.24798,-1.11778 -3.375,-0.90625 -0.12702,0.21153 -1.06007,2.79361 -2.0625,5.75 -1.00243,2.9564 -3.59709,9.17384 -5.75,13.8125 -2.15292,4.63867 -3.91025,9.87006 -3.90625,11.625 0.007,3.15183 0.11031,3.08369 8.09375,-5.3125 l 8.09375,-8.5 -8.25,9.25 -8.21875,9.28125 0.4375,28.21875 c 0.24818,15.53294 0.13753,25.775 -0.25,22.75 -0.38753,-3.025 -0.7581,-15.83943 -0.8125,-28.5 L 231,174.5 214.53125,154.53125 c -9.06029,-10.98943 -16.4853,-20.3375 -16.5,-20.75 -0.0147,-0.4125 0.60713,-0.75 1.40625,-0.75 0.79912,0 2.59374,-0.4985 3.96875,-1.125 l 2.5,-1.15625 -3.625,-4.4375 -3.65625,-4.4375 -1.75,2.3125 c -5.32038,7.05339 -13.95466,39.14293 -16.375,60.84375 -0.88947,7.975 -1.89258,21.1375 -2.21875,29.25 l -0.59375,14.75 -3.71875,0 c -6.31822,0 -6.40855,-0.50347 -4.53125,-23.25 3.92673,-47.57848 11.65917,-77.02413 26.34375,-100.25 4.76441,-7.53564 12.0498,-15.71786 13.3125,-14.9375 l 0.0937,-0.25 -1.4375,-6.15625 -0.4375,0.4375 z m 3.25,10.90625 c 0.62934,4.19673 0.33039,4.91687 -4.84375,12.71875 -8.35186,12.59343 -8.11574,11.45769 -3.46875,16.96875 2.22965,2.64423 4.63152,4.8125 5.3125,4.8125 0.68096,0 4.19668,-0.91444 7.8125,-2.03125 7.24637,-2.23818 6.91214,-1.55001 4.96875,-10.96875 -0.28347,-1.37387 -0.16361,-2.16362 0.25,-1.75 -5.5924,-8.48588 -7.38385,-11.89436 -10.03125,-19.75 z m 10.03125,19.75 c 0.41362,0.41361 1.2763,4.23974 1.9375,8.5 1.08003,6.95885 6.4601,32.30759 8.0625,38 0.34836,1.2375 0.94839,2.25 1.3125,2.25 1.00602,0 6.83762,-13.38268 10.25,-23.5 1.66955,-4.95 3.2908,-9.225 3.59375,-9.5 0.5948,-0.53992 -0.12853,2.50982 -1.1875,5.0625 -0.44814,1.08024 0.16054,1.94037 1.9375,2.75 3.82392,1.7423 4.00604,1.6196 5.40625,-3.84375 0.97775,-3.81497 1.98321,-5.36119 4.125,-6.46875 l 0.125,-0.625 c -5.0587,2.61593 -9.77715,3.3978 -14.90625,1.75 -9.6316,-3.09432 -14.25255,-6.10227 -20.65625,-14.375 z m 1.03125,11.75 c -0.81954,0.0355 -19.09463,6.15589 -20.15625,6.75 -1.96215,1.09808 -0.81754,2.76105 15.53125,22.59375 11.82462,14.34444 13.54772,16.0358 13.84375,13.78125 0.18589,-1.41569 -0.37507,-5.27907 -1.25,-8.59375 -0.87493,-3.31467 -2.77797,-11.43125 -4.21875,-18.03125 -1.44078,-6.6 -2.8532,-13.0125 -3.125,-14.25 -0.27179,-1.2375 -0.5516,-2.253 -0.625,-2.25 z m 25.59375,168.78125 c 0.11541,-0.0403 0.0553,0.0753 -0.21875,0.40625 -2.15513,2.60315 -1.05297,3.8125 3.5,3.8125 3.25142,0 4.5,-0.39634 4.5,-1.4375 0,-0.79254 0.45741,-1.72716 1,-2.0625 0.62854,-0.38846 0.66384,0.25293 0.125,1.71875 -0.69016,1.87746 -1.7046,2.34469 -5.5,2.59375 -5.20394,0.34149 -7.24236,-1.76217 -4.25,-4.375 0.44912,-0.39216 0.72834,-0.61593 0.84375,-0.65625 z m -80,3 c 0.11541,-0.0403 0.0553,0.0753 -0.21875,0.40625 -2.15513,2.60315 -1.05297,3.8125 3.5,3.8125 3.25142,0 4.5,-0.39634 4.5,-1.4375 0,-0.79254 0.45741,-1.72716 1,-2.0625 0.62854,-0.38846 0.66384,0.25293 0.125,1.71875 -0.69016,1.87746 -1.7046,2.34469 -5.5,2.59375 -5.20394,0.34149 -7.24236,-1.76217 -4.25,-4.375 0.44912,-0.39216 0.72834,-0.61593 0.84375,-0.65625 z"
       id="path2858"
       sodipodi:nodetypes="cssssssssssssssssssssssssssssssssscccsssscccccscccsscccccscccsscccccssssscccssssssssccsccssssssccsssssssccsssssssc" />
    <path
       style="fill:#000000"
       d="m 377.3618,127.56732 c -5.542,-1.93897 -11.282,-5.82311 -16.40293,-11.09954 -4.34375,-4.47564 -11.97659,-18.059917 -13.10251,-23.318727 -0.40199,-1.87756 -1.07757,-3.86374 -1.50129,-4.41374 -1.3114,-1.70225 -2.99866,-17.319234 -2.99866,-27.755094 0,-26.852835 11.60293,-37.161534 39.88201,-35.43344 12.15257,0.742627 16.32077,1.9735 21.00069,6.201531 9.15649,8.27234 12.39737,21.368065 10.214,41.27275 -2.90802,26.510939 -7.48683,40.39264 -16.36357,49.60983 -6.1532,6.3892 -12.3543,7.86602 -20.72774,4.93643 z m -3.98686,-9.64944 c -6.33284,-9.38349 -9.28579,-19.090991 -11.15856,-36.682567 -2.36955,-22.257995 2.41393,-42.297956 11.42588,-47.867647 1.81695,-1.122938 6.20844,-2.432911 9.75885,-2.911051 l 6.4553,-0.869345 -5.85817,-0.804715 c -10.55747,-1.450241 -24.23978,1.33577 -28.73847,5.851765 -5.90239,5.925102 -7.15303,10.379142 -7.6334,27.185717 -0.32553,11.389446 -0.0507,14.391536 2.12165,23.171126 3.3886,13.695416 7.62539,22.355147 14.46471,29.564967 4.79669,5.05654 10.89743,9.25345 11.94064,8.21438 0.16332,-0.16268 -1.08697,-2.34636 -2.77843,-4.85263 z m 21.98147,-17.18257 c -0.86377,-1.040781 -3.15985,-1.500001 -7.5,-1.500001 -4.34015,0 -6.63623,0.45922 -7.5,1.500001 -1.09043,1.31389 -0.15985,1.5 7.5,1.5 7.65985,0 8.59043,-0.18611 7.5,-1.5 z m -10.76791,-0.21452 c 1.50265,-0.22818 4.20265,-0.23277 6,-0.0102 1.79735,0.22255 0.56791,0.40924 -2.73209,0.41485 -3.3,0.006 -4.77056,-0.17648 -3.26791,-0.40465 z m 19.58641,-9.824217 c 5.59867,-1.66263 6.86517,-3.46355 2.4315,-3.45752 -2.51544,0.003 -9.25,3.26627 -9.25,4.48157 0,0.81365 1.2752,0.62214 6.8185,-1.02405 z m -26.19315,-1.32275 c -2.69456,-2.97745 -9.14866,-5.47497 -12.18142,-4.71379 -1.47396,0.36994 -2.36811,0.98443 -1.98701,1.36554 1.04445,1.04444 11.77072,4.96186 13.94807,5.09407 1.79488,0.10899 1.80761,0.008 0.22036,-1.74582 z"
       id="path2877" />
    <image
       y="25.362183"
       x="951"
       id="image2894"
       height="131"
       width="160"
       xlink:href="file:///D:/My%20Documents/MSPA/new-extreme/inkscape_pasted_image_20100619_171722.png" />
    <path
       style="fill:#000000"
       d="m 1071.581,320.33684 c -0.2877,-0.28772 -5.231,-0.79252 -10.9851,-1.12178 -11.0599,-0.63286 -26.0337,-4.52661 -32.962,-8.57132 -1.925,-1.12382 -2.6,-1.72637 -1.5,-1.33899 9.6402,3.39488 15.9214,5.33035 16.2458,5.00593 0.2138,-0.21377 -0.7456,-2.62715 -2.132,-5.36306 -9.2947,-18.34215 -10.075,-51.38539 -1.4932,-63.23216 3.6865,-5.08907 9.539,-10.79138 14.8607,-14.47934 3.8737,-2.68445 4.961,-2.9006 18.3184,-3.64161 11.6355,-0.64548 30.2362,-3.27487 35.3204,-4.99288 1.763,-0.59571 14.1047,7.98302 17.2569,11.99527 4.127,5.2529 5.6529,8.61577 8.6735,19.11505 3.6763,12.77855 3.849,24.31843 0.539,36.01119 -1.3234,4.675 -2.9495,9.175 -3.6135,10 -0.664,0.825 -1.4808,2.625 -1.815,4 -2.3574,9.6979 -17.7319,15.54834 -43.6759,16.61991 -6.8832,0.2843 -12.7503,0.28151 -13.038,-0.006 z m 7.553,-30.6137 c 0.8831,-1.42903 8.8476,-1.23803 10.425,0.25 1.0693,1.00881 1.2374,0.96057 0.871,-0.25 -0.6651,-2.19724 -11.0203,-2.63968 -12.7586,-0.54513 -0.792,0.95429 -0.8757,1.54513 -0.2189,1.54513 0.5849,0 1.3415,-0.45 1.6815,-1 z m 15.0573,-9.41824 c 1.0667,-0.78003 1.6046,-1.75312 1.1953,-2.16244 -0.9442,-0.94419 -5.7526,1.195 -5.7526,2.55925 0,1.46011 2.2905,1.26067 4.5573,-0.39681 z m -12.5573,-0.39466 c 0,-1.55482 -5.8445,-6.40128 -6.9188,-5.73732 -1.8541,1.14593 -1.1857,4.19423 1.1688,5.32973 2.7174,1.31057 5.75,1.52553 5.75,0.40759 z m -61.5001,27.57172 c -3.5134,-1.26868 -4.5579,-2.49618 -7.9719,-9.36904 -6.5802,-13.247 -8.2894,-30.66127 -4.2129,-42.92489 4.1224,-12.40178 16.5029,-28.95659 25.3554,-33.90435 3.5772,-1.99931 4.9174,-2.31745 5.995,-1.42311 1.1456,0.95073 0.9031,1.46767 -1.3888,2.96071 -10.8423,7.06305 -12.8172,9.25549 -20.2482,22.478 -5.3624,9.54175 -7.2962,18.30014 -6.8476,31.01319 0.3299,9.34781 0.6422,10.67073 4.2488,18 2.141,4.35087 4.9986,9.37317 6.3502,11.16067 1.3516,1.7875 2.2915,3.21447 2.0887,3.17105 -0.2028,-0.0434 -1.7187,-0.56642 -3.3687,-1.16223 z m 124.9681,-5.85948 c -0.3667,-1.15537 -0.172,-2.59537 0.4326,-3.2 0.7991,-0.79911 1.0994,-0.22544 1.0994,2.10066 0,3.69357 -0.5772,4.10772 -1.532,1.09934 z m -0.9848,-69.32299 c -2.0423,-7.54506 -2.7962,-7.93298 -13.4867,-6.93941 -6.1458,0.5712 -7.3246,0.40858 -8.9871,-1.23975 -3.1902,-3.16306 -4.8721,-4.39719 -5.9929,-4.39719 -0.6498,0 -0.4605,-1.17468 0.4835,-3 1.8096,-3.49955 3.6708,-3.72824 8.6449,-1.06228 4.1556,2.22725 7.1936,1.82547 10.8551,-1.43562 1.375,-1.22464 4.4125,-2.69075 6.75,-3.25802 l 4.25,-1.03142 0,14.39367 c 0,7.91652 -0.1751,14.39367 -0.389,14.39367 -0.2139,0 -1.1714,-2.89064 -2.1278,-6.42365 z M 986.63393,216.16413 c 0,-2.62656 0.40291,-4.31001 0.95054,-3.97155 0.5228,0.3231 2.65364,-0.32534 4.73519,-1.44099 5.14713,-2.75869 6.99035,-2.55552 8.81424,0.97155 0.9439,1.82532 1.1332,3 0.4835,3 -1.1531,0 -3.15434,1.47252 -5.77608,4.25 -1.00654,1.06634 -3.12772,1.75 -5.42963,1.75 l -3.77776,0 0,-4.55901 z"
       id="path2898" />
    <image
       y="32.362183"
       x="769"
       id="image2924"
       height="129"
       width="157"
       xlink:href="file:///D:/My%20Documents/MSPA/new-extreme/inkscape_pasted_image_20100619_171944.png" />
    <path
       style="fill:#000000"
       d="m 801.91911,337.74237 c 0.18333,-0.50521 2.7909,-5.61847 5.79461,-11.3628 l 5.46127,-10.44424 -3.20537,-6.95414 c -7.35643,-15.95999 -9.12566,-32.14903 -4.90203,-44.85537 4.58931,-13.80648 17.33173,-29.98977 27.54017,-34.97691 3.53338,-1.72616 5.69739,-3.33527 5.18053,-3.85213 -0.83128,-0.83128 -17.24939,-0.29791 -30.28585,0.98389 -8.02111,0.78866 -7.27747,-1.91205 1.75,-6.35563 6.50803,-3.20345 24.27374,-7.26411 31.78101,-7.26411 3.32796,0 4.95676,-0.45604 5.35736,-1.5 0.33229,-0.86592 1.82703,-1.5 3.53601,-1.5 2.48632,0 2.86066,0.31423 2.33761,1.96223 -0.34253,1.07922 -0.10986,2.92065 0.51706,4.09206 1.37067,2.5611 12.08349,7.69456 16.97095,8.13226 l 3.5,0.31345 0.29381,-7.25 0.29381,-7.25 16.95619,0 c 12.90194,0 16.95455,0.29888 16.94934,1.25 -0.004,0.6875 1.23373,5.19684 2.75,10.02076 2.00314,6.37288 3.16694,8.68862 4.25685,8.4703 1.92229,-0.38504 1.53674,-4.8679 -1.07041,-12.44572 -2.4291,-7.06029 -2.41706,-7.29534 0.37358,-7.29534 1.96711,0 2.61287,0.9849 4.42576,6.75 1.16743,3.7125 2.63247,9.31131 3.25565,12.4418 1.07226,5.38642 1.4384,5.89531 6.82424,9.48469 6.53039,4.35218 12.82942,7.835 22.44118,12.40808 7.25584,3.45217 9.299,6.60394 3.5,5.39909 -7.89513,-1.64037 -24.00165,-5.62884 -26.37559,-6.53141 -2.2882,-0.86997 -2.51154,-0.77583 -1.84832,0.7791 0.4149,0.97276 2.07705,6.04365 3.69365,11.26865 2.361,7.63093 2.96071,11.46744 3.04818,19.5 0.12249,11.24854 -1.64142,18.88727 -7.51498,32.54416 -1.32554,3.08208 -1.35047,4.51625 -0.19121,11 0.73318,4.10071 1.35673,8.91834 1.38566,10.70584 l 0.0526,3.25 -16.3,0 c -11.65509,0 -16.68376,-0.3562 -17.6467,-1.25 -1.07737,-1 -1.20557,-1 -0.64099,0 0.53109,0.94069 -0.80817,1.25 -5.41231,1.25 -3.82405,0 -5.8863,-0.37496 -5.5,-1 0.33992,-0.55 2.05398,-1.00781 3.80902,-1.01736 7.65261,-0.0417 29.76711,-6.14042 31.93165,-8.80617 1.04298,-1.28448 1.00163,-1.44258 -0.24067,-0.92022 -10.85088,4.56252 -14.82917,5.85233 -22.5,7.29479 -12.46743,2.34443 -28.78324,1.5419 -40.88262,-2.0109 -4.88543,-1.43453 -9.09104,-2.39981 -9.34579,-2.14507 -0.72262,0.72262 12.43731,4.39186 20.47841,5.70978 3.9875,0.65354 7.25,1.5723 7.25,2.0417 0,0.4694 -8.74132,0.85345 -19.42514,0.85345 l -19.42515,0 2.6301,-6.09555 c 3.0733,-7.12273 3.7131,-6.3071 -8.99685,-11.46924 l -7.71705,-3.13427 -1.90176,2.09953 c -1.04596,1.15474 -3.02597,4.34953 -4.40001,7.09953 -4.88159,9.77001 -6.16599,11.48709 -8.59747,11.49368 -1.28334,0.003 -2.18334,-0.40703 -2,-0.91224 z m 37.83333,-14.61468 c 0,-0.29329 -1.10407,-2.71202 -2.45348,-5.37496 -9.22806,-18.21069 -9.97577,-51.29686 -1.42599,-63.09949 6.4579,-8.91487 15.72736,-16.22157 24.14257,-19.0305 4.17983,-1.3952 4.8332,-1.88528 3.2369,-2.42792 -1.1,-0.37394 -2.675,-1.00569 -3.5,-1.4039 -0.825,-0.39821 -4.0875,-1.58354 -7.25,-2.63409 -5.65917,-1.8799 -5.83873,-1.87991 -11.36686,-8.4e-4 -3.08927,1.05007 -7.12383,3.05576 -8.96569,4.45708 -1.84186,1.40132 -4.45321,3.32917 -5.80301,4.2841 -5.34676,3.78264 -14.92794,20.69204 -17.16556,30.29478 -1.11355,4.77877 -1.51202,10.13986 -1.26788,17.05831 0.33008,9.354 0.64022,10.66587 4.25532,18 6.62807,13.4467 6.65048,13.4673 19.56368,17.98015 7.09958,2.48113 8,2.69467 8,1.89728 z m 36.5,-24.46676 c 0.88319,-1.42903 8.84768,-1.23804 10.425,0.25 1.06933,1.0088 1.2374,0.96056 0.871,-0.25 -0.66504,-2.19724 -11.02022,-2.63969 -12.75854,-0.54513 -0.79199,0.95428 -0.8757,1.54513 -0.21892,1.54513 0.58488,0 1.34154,-0.45 1.68146,-1 z m 15.0573,-9.41824 c 1.06675,-0.78003 1.60466,-1.75313 1.19535,-2.16244 -0.94419,-0.94419 -5.75265,1.195 -5.75265,2.55924 0,1.46011 2.29056,1.26068 4.5573,-0.3968 z m -12.5573,-0.39467 c 0,-1.55482 -5.84443,-6.40127 -6.91874,-5.73731 -1.85415,1.14593 -1.1857,4.19422 1.16874,5.32972 2.71744,1.31058 5.75,1.52554 5.75,0.40759 z m -14,-57.55869 c 0,-0.20439 -4.6125,-2.42624 -10.25,-4.93745 -11.48492,-5.11593 -23.8034,-7.41449 -33.34616,-6.2222 -8.59666,1.07408 -5.25216,2.52787 5.90518,2.56687 11.2491,0.0393 17.45946,1.30031 28.69098,5.82561 7.45378,3.00321 9,3.47861 9,2.76717 z m 8,106.3716 c 0,-0.55 1.575,-1 3.5,-1 1.925,0 3.5,0.45 3.5,1 0,0.55 -1.575,1 -3.5,1 -1.925,0 -3.5,-0.45 -3.5,-1 z"
       id="path2928" />
    <path
       id="path2930"
       d="m 809.96962,473.77306 c -7.35643,-15.95999 -9.12566,-32.14903 -4.90203,-44.85537 4.58931,-13.80648 17.33173,-29.98977 27.54017,-34.97691 3.53338,-1.72616 5.69739,-3.33527 5.18053,-3.85213 -0.83128,-0.83128 -17.24939,-0.29791 -30.28585,0.98389 -8.02111,0.78866 -7.27747,-1.91205 1.75,-6.35563 6.50803,-3.20345 24.27374,-7.26411 31.78101,-7.26411 3.32796,0 4.95676,-0.45604 5.35736,-1.5 0.33229,-0.86592 1.82703,-1.5 3.53601,-1.5 2.48632,0 2.86066,0.31423 2.33761,1.96223 -0.34253,1.07922 -0.10986,2.92065 0.51706,4.09206 1.37067,2.5611 12.08349,7.69456 16.97095,8.13226 l 3.5,0.31345 0.29381,-7.25 0.29381,-7.25 16.95619,0 c 12.90194,0 16.95455,0.29888 16.94934,1.25 -0.004,0.6875 1.23373,5.19684 2.75,10.02076 2.00314,6.37288 3.16694,8.68862 4.25685,8.4703 1.92229,-0.38504 1.53674,-4.8679 -1.07041,-12.44572 -2.4291,-7.06029 -2.41706,-7.29534 0.37358,-7.29534 1.96711,0 2.61287,0.9849 4.42576,6.75 1.16743,3.7125 2.63247,9.31131 3.25565,12.4418 1.07226,5.38642 1.4384,5.89531 6.82424,9.48469 6.53039,4.35218 12.82942,7.835 22.44118,12.40808 7.25584,3.45217 9.299,6.60394 3.5,5.39909 -7.89513,-1.64037 -24.00165,-5.62884 -26.37559,-6.53141 -2.2882,-0.86997 -2.51154,-0.77583 -1.84832,0.7791 0.4149,0.97276 2.07705,6.04365 3.69365,11.26865 2.361,7.63093 2.96071,11.46744 3.04818,19.5 0.12249,11.24854 -1.64142,18.88727 -7.51498,32.54416 -1.32554,3.08208 -7.51065,12.68973 -8.75295,13.21209 -10.85088,4.56252 -14.82917,5.85233 -22.5,7.29479 -12.46743,2.34443 -28.78324,1.5419 -40.88262,-2.0109 -4.88543,-1.43453 -14.12447,-5.94279 -26.83442,-11.10493 l -7.71705,-3.13427 -8.84872,-8.98068 z m 29.78282,14.1465 c 0,-0.29329 -1.10407,-2.71202 -2.45348,-5.37496 -9.22806,-18.21069 -9.97577,-51.29686 -1.42599,-63.09949 6.4579,-8.91487 15.72736,-16.22157 24.14257,-19.0305 4.17983,-1.3952 4.8332,-1.88528 3.2369,-2.42792 -1.1,-0.37394 -2.675,-1.00569 -3.5,-1.4039 -0.825,-0.39821 -4.0875,-1.58354 -7.25,-2.63409 -5.65917,-1.8799 -5.83873,-1.87991 -11.36686,-8.4e-4 -3.08927,1.05007 -7.12383,3.05576 -8.96569,4.45708 -1.84186,1.40132 -4.45321,3.32917 -5.80301,4.2841 -5.34676,3.78264 -14.92794,20.69204 -17.16556,30.29478 -1.11355,4.77877 -1.51202,10.13986 -1.26788,17.05831 0.33008,9.354 0.64022,10.66587 4.25532,18 6.62807,13.4467 6.65048,13.4673 19.56368,17.98015 7.09958,2.48113 8,2.69467 8,1.89728 z m 36.5,-24.46676 c 0.88319,-1.42903 8.84768,-1.23804 10.425,0.25 1.06933,1.0088 1.2374,0.96056 0.871,-0.25 -0.66504,-2.19724 -11.02022,-2.63969 -12.75854,-0.54513 -0.79199,0.95428 -0.8757,1.54513 -0.21892,1.54513 0.58488,0 1.34154,-0.45 1.68146,-1 z m 15.0573,-9.41824 c 1.06675,-0.78003 1.60466,-1.75313 1.19535,-2.16244 -0.94419,-0.94419 -5.75265,1.195 -5.75265,2.55924 0,1.46011 2.29056,1.26068 4.5573,-0.3968 z m -12.5573,-0.39467 c 0,-1.55482 -5.84443,-6.40127 -6.91874,-5.73731 -1.85415,1.14593 -1.1857,4.19422 1.16874,5.32972 2.71744,1.31058 5.75,1.52554 5.75,0.40759 z m -14,-57.55869 c 0,-0.20439 -4.6125,-2.42624 -10.25,-4.93745 -11.48492,-5.11593 -23.8034,-7.41449 -33.34616,-6.2222 -8.59666,1.07408 -5.25216,2.52787 5.90518,2.56687 11.2491,0.0393 17.45946,1.30031 28.69098,5.82561 7.45378,3.00321 9,3.47861 9,2.76717 z"
       style="fill:#000000"
       sodipodi:nodetypes="csssssssssscccccssssssssssssssssssccccsssssssssssssccssssccssccssccssssc" />
    <path
       id="path2932"
       d="m 1081.0277,508.22057 c -0.2877,-0.28772 -5.231,-0.79252 -10.9851,-1.12178 -11.0599,-0.63286 -26.0337,-4.52661 -32.962,-8.57132 -1.925,-1.12382 -2.6,-1.72637 -1.5,-1.33899 9.6402,3.39488 15.9214,5.33035 16.2458,5.00593 0.2138,-0.21377 -0.7456,-2.62715 -2.132,-5.36306 -9.2947,-18.34215 -10.075,-51.38539 -1.4932,-63.23216 3.6865,-5.08907 9.539,-10.79138 14.8607,-14.47934 3.8737,-2.68445 4.961,-2.9006 18.3184,-3.64161 11.6355,-0.64548 30.2362,-3.27487 35.3204,-4.99288 1.763,-0.59571 14.1047,7.98302 17.2569,11.99527 4.127,5.2529 5.6529,8.61577 8.6735,19.11505 3.6763,12.77855 3.849,24.31843 0.539,36.01119 -1.3234,4.675 -2.9495,9.175 -3.6135,10 -0.664,0.825 -1.4808,2.625 -1.815,4 -2.3574,9.6979 -17.7319,15.54834 -43.6759,16.61991 -6.8832,0.2843 -12.7503,0.28151 -13.038,-0.006 l 0,-2.1e-4 z m 7.553,-30.6137 c 0.8831,-1.42903 8.8476,-1.23803 10.425,0.25 1.0693,1.00881 1.2374,0.96057 0.871,-0.25 -0.6651,-2.19724 -11.0203,-2.63968 -12.7586,-0.54513 -0.792,0.95429 -0.8757,1.54513 -0.2189,1.54513 0.5849,0 1.3415,-0.45 1.6815,-1 z m 15.0573,-9.41824 c 1.0667,-0.78003 1.6046,-1.75312 1.1953,-2.16244 -0.9442,-0.94419 -5.7526,1.195 -5.7526,2.55925 0,1.46011 2.2905,1.26067 4.5573,-0.39681 z m -12.5573,-0.39466 c 0,-1.55482 -5.8445,-6.40128 -6.9188,-5.73732 -1.8541,1.14593 -1.1857,4.19423 1.1688,5.32973 2.7174,1.31057 5.75,1.52553 5.75,0.40759 z m -61.5001,27.57172 c -3.5134,-1.26868 -4.5579,-2.49618 -7.9719,-9.36904 -6.5802,-13.247 -8.2894,-30.66127 -4.2129,-42.92489 4.1224,-12.40178 16.5029,-28.95659 25.3554,-33.90435 3.5772,-1.99931 4.9174,-2.31745 5.995,-1.42311 1.1456,0.95073 0.9031,1.46767 -1.3888,2.96071 -10.8423,7.06305 -12.8172,9.25549 -20.2482,22.478 -5.3624,9.54175 -7.2962,18.30014 -6.8476,31.01319 0.3299,9.34781 0.6422,10.67073 4.2488,18 2.141,4.35087 4.9986,9.37317 6.3502,11.16067 1.3516,1.7875 2.2915,3.21447 2.0887,3.17105 -0.2028,-0.0434 -1.7187,-0.56642 -3.3687,-1.16223 z"
       style="fill:#000000"
       sodipodi:nodetypes="cssssssssssssssscccssssccssccssccssssssssssc" />
    <path
       style="fill:#000000"
       d="m 1065.9062,559.71875 c -6.5004,0.0762 -9.5656,0.93582 -19.4374,3.46875 -3.2935,0.84507 -5.7756,2.53451 -8.75,4.15625 -8.9024,4.85389 -21.8464,21.00447 -25.9688,33.40625 -4.0765,12.26362 -2.3927,29.6905 4.1875,42.9375 3.414,6.87286 4.4866,8.10632 8,9.375 1.65,0.59581 3.1409,1.11285 3.3437,1.15625 0.2029,0.0434 -0.7109,-1.4 -2.0624,-3.1875 -1.3516,-1.7875 -4.2341,-6.80538 -6.375,-11.15625 -3.6066,-7.32927 -3.9202,-8.65219 -4.25,-18 -0.4486,-12.71305 1.4813,-21.45825 6.8437,-31 7.431,-13.22251 15.0635,-19.83818 20.25,-22.5 0,0 4.6611,-2.64065 5.9063,-3.03125 10.0511,-3.15283 12.727,-2.70016 18.875,-2.71875 6.4793,-0.0196 21,2.0625 21,2.0625 -3.2921,0.285 -8.6312,1.43067 -11.75,2.125 -13.0584,2.90709 -14.4387,7.31555 -18.3126,10 -5.3216,3.68796 -11.1884,9.37968 -14.875,14.46875 -8.5818,11.84677 -7.7946,44.90785 1.5,63.25 1.3865,2.73591 2.3388,5.12998 2.125,5.34375 -0.3243,0.32442 -6.5785,-1.60512 -16.2187,-5 -1.1,-0.38738 -0.425,0.21993 1.5,1.34375 6.9283,4.04471 21.8775,7.92964 32.9375,8.5625 5.7541,0.32926 10.7123,0.83728 11,1.125 0.2877,0.28751 6.1481,0.2843 13.0312,0 25.944,-1.07157 41.3301,-6.9271 43.6876,-16.625 0.3342,-1.375 1.1485,-3.175 1.8124,-4 0.664,-0.825 2.2704,-5.325 3.5938,-10 3.31,-11.69276 3.1451,-23.22145 -0.5312,-36 -3.0207,-10.49928 -4.5293,-13.8721 -8.6563,-19.125 -3.1522,-4.01225 -15.5098,-11.4297 -17.2813,-12 -7.3292,-2.35949 -13.3562,-5.54384 -20.6874,-6.78125 -7.9288,-1.29917 -16.4036,-1.7504 -24.4376,-1.65625 z m 12.8438,59.96875 c 1.5273,-0.009 6.6875,4.32361 6.6875,5.78125 0,1.11794 -3.0326,0.90432 -5.75,-0.40625 -2.3545,-1.1355 -3.0416,-4.16657 -1.1875,-5.3125 0.067,-0.0415 0.1482,-0.0619 0.25,-0.0625 z m 19.5312,3.78125 c 0.3916,-0.0143 0.7293,0.073 0.9063,0.25 0.4093,0.40932 -0.152,1.37622 -1.2187,2.15625 -2.2668,1.65748 -4.5313,1.86636 -4.5313,0.40625 0,-1.10845 3.1469,-2.7504 4.8437,-2.8125 z m -11.125,9.90625 c 3.2479,-0.0137 6.6884,0.6703 7.0626,1.90625 0.3663,1.21057 0.1943,1.25881 -0.875,0.25 -1.5774,-1.48803 -9.5232,-1.67903 -10.4063,-0.25 -0.34,0.55 -1.1026,1 -1.6875,1 -0.6568,0 -0.5732,-0.57696 0.2188,-1.53125 0.7605,-0.91637 3.1613,-1.36433 5.6874,-1.375 z"
       id="path2934"
       sodipodi:nodetypes="cssssssssssssscsssssssssssssssscscsssccsssccsssssc" />
  </g>
</svg>
