<?xml version="1.0" encoding="UTF-8" standalone="no"?>
<!-- Created with Inkscape (http://www.inkscape.org/) -->

<svg
   xmlns:dc="http://purl.org/dc/elements/1.1/"
   xmlns:cc="http://creativecommons.org/ns#"
   xmlns:rdf="http://www.w3.org/1999/02/22-rdf-syntax-ns#"
   xmlns:svg="http://www.w3.org/2000/svg"
   xmlns="http://www.w3.org/2000/svg"
   xmlns:xlink="http://www.w3.org/1999/xlink"
   xmlns:sodipodi="http://sodipodi.sourceforge.net/DTD/sodipodi-0.dtd"
   xmlns:inkscape="http://www.inkscape.org/namespaces/inkscape"
   width="640"
   height="480"
   id="svg2"
   version="1.1"
   inkscape:version="0.47 r22583"
   sodipodi:docname="incipisynthesis.svg"
   inkscape:export-filename="incipisynthesis.png"
   inkscape:export-xdpi="90"
   inkscape:export-ydpi="90">
  <defs
     id="defs4">
    <filter
       id="filter3705"
       inkscape:label="sparkGlow"
       inkscape:menu="Shadows and Glows"
       inkscape:menu-tooltip="Glow of object's own color at the edges"
       color-interpolation-filters="sRGB">
      <feTurbulence
         id="feTurbulence4948"
         baseFrequency="0.01"
         numOctaves="1"
         type="turbulence"
         result="result95"
         seed="3" />
      <feOffset
         dx="-25"
         dy="-25"
         id="feOffset4956"
         in="SourceGraphic"
         result="result97" />
      <feDisplacementMap
         id="feDisplacementMap4950"
         in="result97"
         in2="result95"
         yChannelSelector="B"
         scale="100"
         xChannelSelector="A"
         result="result99" />
      <feDisplacementMap
         id="feDisplacementMap4952"
         in2="result95"
         in="result97"
         scale="100"
         xChannelSelector="G"
         result="result98" />
      <feComposite
         id="feComposite3621"
         in2="result99"
         result="result93"
         in="result98" />
      <feComposite
         id="feComposite3623"
         in2="SourceGraphic"
         result="result96" />
      <feGaussianBlur
         id="feGaussianBlur3707"
         stdDeviation="5"
         result="result91"
         in="result96" />
      <feComposite
         id="feComposite3709"
         operator="over"
         in="result91"
         in2="result96"
         result="result92" />
    </filter>
    <filter
       id="filter3609"
       inkscape:label="inciGlow">
      <feGaussianBlur
         stdDeviation="0.5"
         id="feGaussianBlur3617"
         result="result2" />
      <feGaussianBlur
         stdDeviation="5"
         id="feGaussianBlur3611"
         result="result1"
         in="SourceGraphic" />
      <feComposite
         id="feComposite3613"
         in="result1"
         operator="arithmetic"
         in2="result2"
         k3="0.29612756264236983"
         k2="0.80000000000000004" />
    </filter>
  </defs>
  <sodipodi:namedview
     id="base"
     pagecolor="#ffffff"
     bordercolor="#666666"
     borderopacity="1.0"
     inkscape:pageopacity="0.0"
     inkscape:pageshadow="2"
     inkscape:zoom="1"
     inkscape:cx="350.08154"
     inkscape:cy="255.26963"
     inkscape:document-units="px"
     inkscape:current-layer="layer1"
     showgrid="false"
     inkscape:window-width="1280"
     inkscape:window-height="774"
     inkscape:window-x="1276"
     inkscape:window-y="1020"
     inkscape:window-maximized="1"
     inkscape:snap-smooth-nodes="true"
     inkscape:snap-global="false">
    <inkscape:grid
       type="xygrid"
       id="grid2822"
       empspacing="5"
       visible="true"
       enabled="true"
       snapvisiblegridlinesonly="true" />
  </sodipodi:namedview>
  <metadata
     id="metadata7">
    <rdf:RDF>
      <cc:Work
         rdf:about="">
        <dc:format>image/svg+xml</dc:format>
        <dc:type
           rdf:resource="http://purl.org/dc/dcmitype/StillImage" />
        <dc:title></dc:title>
      </cc:Work>
    </rdf:RDF>
  </metadata>
  <g
     inkscape:groupmode="layer"
     id="layer2"
     inkscape:label="background"
     sodipodi:insensitive="true">
    <rect
       transform="translate(0,-372.36214)"
       style="color:#000000;fill:#000000;stroke:none;stroke-width:1px;marker:none;visibility:visible;display:inline;overflow:visible;enable-background:accumulate"
       id="rect3721"
       width="640"
       height="480"
       x="0"
       y="372.36215" />
  </g>
  <g
     inkscape:label="Layer 1"
     inkscape:groupmode="layer"
     id="layer1"
     transform="translate(0,-372.36214)">
    <g
       id="g2990">
      <g
         transform="translate(-30,-410.00017)"
         id="g3723">
        <path
           id="path2833"
           style="color:#000000;fill:#b3b3b3;fill-opacity:1;fill-rule:nonzero;stroke:#4d4d4d;stroke-width:3.99999976;stroke-linecap:round;stroke-linejoin:round;stroke-miterlimit:4;stroke-opacity:1;stroke-dasharray:none;stroke-dashoffset:0;marker:none;visibility:visible;display:inline;overflow:visible;enable-background:accumulate"
           d="M 650,592.36219 390,982.36231 780,722.36219"
           sodipodi:nodetypes="ccc" />
        <path
           sodipodi:type="arc"
           style="color:#000000;fill:#b3b3b3;stroke:#4d4d4d;stroke-width:5.33332539;stroke-linecap:round;stroke-linejoin:round;stroke-miterlimit:4;stroke-opacity:1;stroke-dasharray:none;stroke-dashoffset:0;marker:none;visibility:visible;display:inline;overflow:visible;enable-background:accumulate"
           id="path2824"
           sodipodi:cx="180"
           sodipodi:cy="872.36218"
           sodipodi:rx="20"
           sodipodi:ry="20"
           d="m 200,872.36218 c 0,11.0457 -8.95431,20 -20,20 -11.04569,0 -20,-8.9543 -20,-20 0,-11.04569 8.95431,-20 20,-20 11.04569,0 20,8.95431 20,20 z"
           transform="matrix(-0.75000068,0,0,-0.75000152,550.00014,1611.6352)" />
        <path
           d="m 210,872.36218 c 0,16.56855 -13.43146,30 -30,30 -16.56854,0 -30,-13.43145 -30,-30 0,-16.56854 13.43146,-30 30,-30 16.56854,0 30,13.43146 30,30 z"
           sodipodi:ry="30"
           sodipodi:rx="30"
           sodipodi:cy="872.36218"
           sodipodi:cx="180"
           id="path2891"
           style="color:#000000;fill:#b3b3b3;stroke:#4d4d4d;stroke-width:3.99999976;stroke-linecap:round;stroke-linejoin:round;stroke-miterlimit:4;stroke-opacity:1;stroke-dasharray:none;stroke-dashoffset:0;marker:none;visibility:visible;display:inline;overflow:visible;enable-background:accumulate"
           sodipodi:type="arc"
           transform="matrix(-1,0,0,-1,640,1784.7245)" />
        <path
           transform="matrix(-1,0,0,-1,710,1714.7245)"
           sodipodi:type="arc"
           style="color:#000000;fill:#b3b3b3;stroke:#4d4d4d;stroke-width:3.99999976;stroke-linecap:round;stroke-linejoin:round;stroke-miterlimit:4;stroke-opacity:1;stroke-dasharray:none;stroke-dashoffset:0;marker:none;visibility:visible;display:inline;overflow:visible;enable-background:accumulate"
           id="path2893"
           sodipodi:cx="180"
           sodipodi:cy="872.36218"
           sodipodi:rx="50"
           sodipodi:ry="50"
           d="m 230,872.36218 c 0,27.61424 -22.38576,50 -50,50 -27.61424,0 -50,-22.38576 -50,-50 0,-27.61423 22.38576,-50 50,-50 27.61424,0 50,22.38577 50,50 z" />
        <path
           sodipodi:type="arc"
           style="color:#000000;fill:#b3b3b3;stroke:#4d4d4d;stroke-width:0.9999994;stroke-linecap:round;stroke-linejoin:round;stroke-miterlimit:4;stroke-opacity:1;stroke-dasharray:none;stroke-dashoffset:0;marker:none;visibility:visible;display:inline;overflow:visible;enable-background:accumulate"
           id="path2824-3"
           sodipodi:cx="180"
           sodipodi:cy="872.36218"
           sodipodi:rx="20"
           sodipodi:ry="20"
           d="m 200,872.36218 c 0,11.0457 -8.95431,20 -20,20 -11.04569,0 -20,-8.9543 -20,-20 0,-11.04569 8.95431,-20 20,-20 11.04569,0 20,8.95431 20,20 z"
           transform="matrix(-4.000001,0,0,-4.0000028,1360.0002,4221.8134)" />
      </g>
      <use
         height="1052.3622"
         width="744.09448"
         transform="matrix(-1,0,0,1,640,2.6171874e-6)"
         id="use3730"
         xlink:href="#g3723"
         y="0"
         x="0" />
      <use
         height="1052.3622"
         width="744.09448"
         transform="matrix(1,0,0,-1,0,1224.7244)"
         id="use3732"
         xlink:href="#g3723"
         y="0"
         x="0" />
      <use
         height="1052.3622"
         width="744.09448"
         transform="matrix(-1,0,0,-1,640,1224.7244)"
         id="use3734"
         xlink:href="#g3723"
         y="0"
         x="0" />
    </g>
    <path
       id="path3915"
       d="m 308.65625,574.0809 c -0.34082,0.0389 -0.70297,0.11208 -1.03125,0.21875 -5.25254,1.70666 -6.72581,11.61992 -3.3125,22.125 0.78062,2.4025 1.74973,4.60943 2.84375,6.59375 -2.22578,-0.42752 -4.62942,-0.65625 -7.15625,-0.65625 -11.0457,0 -20,4.47716 -20,10 0,5.52285 8.9543,10 20,10 2.52683,0 4.93047,-0.25998 7.15625,-0.6875 -1.09403,1.98432 -2.06313,4.19125 -2.84375,6.59375 -3.4133,10.50508 -1.94003,20.41835 3.3125,22.125 5.25254,1.70666 12.30545,-5.43242 15.71875,-15.9375 0.77857,-2.39618 1.2807,-4.75687 1.5625,-7 1.54788,1.65153 3.36508,3.267 5.40625,4.75 8.93616,6.4925 18.81626,8.12433 22.0625,3.65625 3.24625,-4.46807 -1.37635,-13.35125 -10.3125,-19.84375 -2.04365,-1.4848 -4.1361,-2.69396 -6.1875,-3.65625 2.05401,-0.96285 4.14115,-2.20074 6.1875,-3.6875 8.93615,-6.49249 13.55874,-15.37568 10.3125,-19.84375 -3.24625,-4.46808 -13.12634,-2.80499 -22.0625,3.6875 -2.04117,1.483 -3.85837,3.06722 -5.40625,4.71875 -0.2818,-2.24313 -0.78393,-4.60382 -1.5625,-7 -3.19998,-9.84851 -9.57525,-16.74041 -14.6875,-16.15625 z"
       style="color:#000000;fill:#8bd0ff;fill-opacity:1;stroke:none;stroke-width:1.25000000000000000;stroke-miterlimit:4;stroke-dasharray:none;marker:none;visibility:visible;display:inline;overflow:visible;enable-background:accumulate;filter:url(#filter3609)" />
    <path
       id="path3917"
       d="m 330.3125,574.0809 c -4.9101,0.36551 -10.66961,6.9643 -13.65625,16.15625 -0.77857,2.39618 -1.2807,4.75687 -1.5625,7 -1.54788,-1.65152 -3.36508,-3.23575 -5.40625,-4.71875 -8.93616,-6.4925 -18.81626,-8.15557 -22.0625,-3.6875 -3.24625,4.46808 1.37635,13.35125 10.3125,19.84375 2.04635,1.48676 4.1335,2.72465 6.1875,3.6875 -2.0514,0.96229 -4.14385,2.17145 -6.1875,3.65625 -8.93615,6.49249 -13.55874,15.37568 -10.3125,19.84375 3.24625,4.46808 13.12634,2.83624 22.0625,-3.65625 2.04117,-1.483 3.85837,-3.09847 5.40625,-4.75 0.2818,2.24313 0.78393,4.60382 1.5625,7 3.41331,10.50508 10.46622,17.64415 15.71875,15.9375 5.25254,-1.70666 6.72581,-11.61992 3.3125,-22.125 -0.78062,-2.4025 -1.74973,-4.60943 -2.84375,-6.59375 2.22578,0.42752 4.62942,0.6875 7.15625,0.6875 11.04569,0 20,-4.47716 20,-10 0,-5.52285 -8.95431,-10 -20,-10 -2.52683,0 -4.93047,0.22873 -7.15625,0.65625 1.09403,-1.98432 2.06313,-4.19125 2.84375,-6.59375 3.4133,-10.50508 1.94003,-20.41835 -3.3125,-22.125 -0.65657,-0.21333 -1.36106,-0.27097 -2.0625,-0.21875 z"
       style="color:#000000;fill:#98ffff;fill-opacity:1;stroke:none;stroke-width:1.25000000000000000;stroke-miterlimit:4;stroke-opacity:1;stroke-dasharray:none;marker:none;visibility:visible;display:inline;overflow:visible;enable-background:accumulate;filter:url(#filter3609)" />
    <path
       id="path2931"
       transform="matrix(1.1522557,0,0,1.1219365,-49.721724,340.54928)"
       style="fill:none;stroke:#ffffff;stroke-width:3.51804542999999990;stroke-linecap:butt;stroke-linejoin:miter;stroke-miterlimit:4;stroke-opacity:1;stroke-dasharray:none;filter:url(#filter3705)"
       d="m 57.156611,496.21737 51.507339,-37.56527 6.56444,-50.91316 40.05709,4.08738 48.23506,-12.87227 -12.12086,-41.9109 52.33452,-4.13978 L 265.88581,292.6521 273,257 l 42,-5 50,-48 -3,-35 56.66069,-14.52158 40.13213,-32.41342 7.30343,-54.500274 63.15008,3.674486 L 531,-11 m -9.65589,489.46991 -2.60359,-68.63134 -55.54322,35.65265 -21.69658,-24.95685 22.92342,-49.9888 -18.76601,-26.22793 -33.66475,17.38987 -27.77161,-40.10922 3.47145,-28.52211 -31.24306,-12.47843 -22.56444,-27.6308 -24.73409,-21.83724 -25.60196,-2.22829 -23.43229,-70.41397 -57.27896,-1.78262 L 200.23483,86.290855 157.70955,118.37823 141.22015,51.529534 62.244625,44.399001 22.322931,0.72451516"
       sodipodi:nodetypes="ccccccccccccccccccccccccccccccccccccc" />
  </g>
</svg>
