<?xml version="1.0" encoding="UTF-8" standalone="no"?>
<!-- Created with Inkscape (http://www.inkscape.org/) -->

<svg
   xmlns:dc="http://purl.org/dc/elements/1.1/"
   xmlns:cc="http://creativecommons.org/ns#"
   xmlns:rdf="http://www.w3.org/1999/02/22-rdf-syntax-ns#"
   xmlns:svg="http://www.w3.org/2000/svg"
   xmlns="http://www.w3.org/2000/svg"
   xmlns:xlink="http://www.w3.org/1999/xlink"
   xmlns:sodipodi="http://sodipodi.sourceforge.net/DTD/sodipodi-0.dtd"
   xmlns:inkscape="http://www.inkscape.org/namespaces/inkscape"
   width="744.09448819"
   height="1052.3622047"
   id="svg2"
   version="1.1"
   inkscape:version="0.47 r22583"
   sodipodi:docname="incipisynthesis.svg">
  <defs
     id="defs4" />
  <sodipodi:namedview
     id="base"
     pagecolor="#ffffff"
     bordercolor="#666666"
     borderopacity="1.0"
     inkscape:pageopacity="0.0"
     inkscape:pageshadow="2"
     inkscape:zoom="1"
     inkscape:cx="219.63586"
     inkscape:cy="467.86248"
     inkscape:document-units="px"
     inkscape:current-layer="layer1"
     showgrid="true"
     inkscape:window-width="1680"
     inkscape:window-height="1000"
     inkscape:window-x="0"
     inkscape:window-y="0"
     inkscape:window-maximized="1"
     inkscape:snap-smooth-nodes="true">
    <inkscape:grid
       type="xygrid"
       id="grid2822" />
  </sodipodi:namedview>
  <metadata
     id="metadata7">
    <rdf:RDF>
      <cc:Work
         rdf:about="">
        <dc:format>image/svg+xml</dc:format>
        <dc:type
           rdf:resource="http://purl.org/dc/dcmitype/StillImage" />
        <dc:title />
      </cc:Work>
    </rdf:RDF>
  </metadata>
  <g
     inkscape:label="Layer 1"
     inkscape:groupmode="layer"
     id="layer1">
    <rect
       style="color:#000000;fill:#000000;stroke:#000000;stroke-width:1px;stroke-linecap:butt;stroke-linejoin:miter;stroke-miterlimit:4;stroke-opacity:1;stroke-dasharray:none;stroke-dashoffset:0;marker:none;visibility:visible;display:inline;overflow:visible;enable-background:accumulate"
       id="rect3721"
       width="1000"
       height="1040"
       x="660"
       y="852.36218" />
    <g
       id="g3723"
       transform="translate(-40,-410.00013)">
      <path
         sodipodi:nodetypes="ccc"
         d="M 650,592.36219 390,982.36231 780,722.36219"
         style="color:#000000;fill:#b3b3b3;fill-opacity:1;fill-rule:nonzero;stroke:#4d4d4d;stroke-width:3.99999976;stroke-linecap:round;stroke-linejoin:round;stroke-miterlimit:4;stroke-opacity:1;stroke-dasharray:none;stroke-dashoffset:0;marker:none;visibility:visible;display:inline;overflow:visible;enable-background:accumulate"
         id="path2833" />
      <path
         transform="matrix(-0.75000068,0,0,-0.75000152,550.00014,1611.6352)"
         d="m 200,872.36218 c 0,11.0457 -8.95431,20 -20,20 -11.04569,0 -20,-8.9543 -20,-20 0,-11.04569 8.95431,-20 20,-20 11.04569,0 20,8.95431 20,20 z"
         sodipodi:ry="20"
         sodipodi:rx="20"
         sodipodi:cy="872.36218"
         sodipodi:cx="180"
         id="path2824"
         style="color:#000000;fill:#b3b3b3;stroke:#4d4d4d;stroke-width:5.33332539;stroke-linecap:round;stroke-linejoin:round;stroke-miterlimit:4;stroke-opacity:1;stroke-dasharray:none;stroke-dashoffset:0;marker:none;visibility:visible;display:inline;overflow:visible;enable-background:accumulate"
         sodipodi:type="arc" />
      <path
         transform="matrix(-1,0,0,-1,640,1784.7245)"
         sodipodi:type="arc"
         style="color:#000000;fill:#b3b3b3;stroke:#4d4d4d;stroke-width:3.99999976;stroke-linecap:round;stroke-linejoin:round;stroke-miterlimit:4;stroke-opacity:1;stroke-dasharray:none;stroke-dashoffset:0;marker:none;visibility:visible;display:inline;overflow:visible;enable-background:accumulate"
         id="path2891"
         sodipodi:cx="180"
         sodipodi:cy="872.36218"
         sodipodi:rx="30"
         sodipodi:ry="30"
         d="m 210,872.36218 c 0,16.56855 -13.43146,30 -30,30 -16.56854,0 -30,-13.43145 -30,-30 0,-16.56854 13.43146,-30 30,-30 16.56854,0 30,13.43146 30,30 z" />
      <path
         d="m 230,872.36218 c 0,27.61424 -22.38576,50 -50,50 -27.61424,0 -50,-22.38576 -50,-50 0,-27.61423 22.38576,-50 50,-50 27.61424,0 50,22.38577 50,50 z"
         sodipodi:ry="50"
         sodipodi:rx="50"
         sodipodi:cy="872.36218"
         sodipodi:cx="180"
         id="path2893"
         style="color:#000000;fill:#b3b3b3;stroke:#4d4d4d;stroke-width:3.99999976;stroke-linecap:round;stroke-linejoin:round;stroke-miterlimit:4;stroke-opacity:1;stroke-dasharray:none;stroke-dashoffset:0;marker:none;visibility:visible;display:inline;overflow:visible;enable-background:accumulate"
         sodipodi:type="arc"
         transform="matrix(-1,0,0,-1,710,1714.7245)" />
      <path
         transform="matrix(-4.000001,0,0,-4.0000028,1360.0002,4221.8134)"
         d="m 200,872.36218 c 0,11.0457 -8.95431,20 -20,20 -11.04569,0 -20,-8.9543 -20,-20 0,-11.04569 8.95431,-20 20,-20 11.04569,0 20,8.95431 20,20 z"
         sodipodi:ry="20"
         sodipodi:rx="20"
         sodipodi:cy="872.36218"
         sodipodi:cx="180"
         id="path2824-3"
         style="color:#000000;fill:#b3b3b3;stroke:#4d4d4d;stroke-width:0.9999994;stroke-linecap:round;stroke-linejoin:round;stroke-miterlimit:4;stroke-opacity:1;stroke-dasharray:none;stroke-dashoffset:0;marker:none;visibility:visible;display:inline;overflow:visible;enable-background:accumulate"
         sodipodi:type="arc" />
    </g>
    <use
       x="0"
       y="0"
       xlink:href="#g3723"
       id="use3730"
       transform="matrix(-1,0,0,1,620,2.6171876e-6)"
       width="744.09448"
       height="1052.3622" />
    <use
       x="0"
       y="0"
       xlink:href="#g3723"
       id="use3732"
       transform="matrix(1,0,0,-1,0,1224.7244)"
       width="744.09448"
       height="1052.3622" />
    <use
       x="0"
       y="0"
       xlink:href="#g3723"
       id="use3734"
       transform="matrix(-1,0,0,-1,620,1224.7244)"
       width="744.09448"
       height="1052.3622" />
    <path
       style="color:#000000;fill:none;stroke:#000000;stroke-width:1.25;stroke-miterlimit:4;marker:none;visibility:visible;display:inline;overflow:visible;enable-background:accumulate"
       d="M 58.65625 564.09375 C 58.315433 564.13269 57.953283 564.20583 57.625 564.3125 C 53.748964 565.5719 51.945139 571.30416 52.625 578.4375 C 46.047371 575.58273 40.021606 575.5451 37.625 578.84375 C 35.227821 582.14318 37.124871 587.87536 41.875 593.25 C 34.885595 594.80876 30 598.30128 30 602.375 C 30 606.45009 34.881854 609.94202 41.875 611.5 C 37.127099 616.87364 35.228335 622.57627 37.625 625.875 C 40.021611 629.17365 46.047372 629.13602 52.625 626.28125 C 51.945141 633.41459 53.748971 639.14685 57.625 640.40625 C 61.497775 641.66459 66.358196 638.09852 70 631.9375 C 73.641806 638.09852 78.502232 641.66459 82.375 640.40625 C 86.251036 639.14685 88.054861 633.41459 87.375 626.28125 C 93.952629 629.13602 99.978394 629.17365 102.375 625.875 C 104.77167 622.57627 102.8729 616.87364 98.125 611.5 C 105.11815 609.94202 110 606.45008 110 602.375 C 110 598.30127 105.1144 594.80876 98.125 593.25 C 102.87513 587.87536 104.77217 582.14318 102.375 578.84375 C 99.978389 575.5451 93.952628 575.58273 87.375 578.4375 C 88.054859 571.30416 86.251029 565.5719 82.375 564.3125 C 78.502225 563.05416 73.641804 566.62023 70 572.78125 C 66.6669 567.14249 62.336058 563.67327 58.65625 564.09375 z "
       id="path3738" />
    <path
       style="color:#000000;fill:none;stroke:#000000;stroke-width:1.25;stroke-miterlimit:4;stroke-dasharray:none;marker:none;visibility:visible;display:inline;overflow:visible;enable-background:accumulate"
       d="M 148.65625 564.09375 C 148.31543 564.13269 147.95328 564.20583 147.625 564.3125 C 142.37246 566.01916 140.89919 575.93242 144.3125 586.4375 C 145.09312 588.84 146.06223 591.04693 147.15625 593.03125 C 144.93047 592.60373 142.52683 592.375 140 592.375 C 128.9543 592.375 120 596.85216 120 602.375 C 120 607.89785 128.9543 612.375 140 612.375 C 142.52683 612.375 144.93047 612.11502 147.15625 611.6875 C 146.06222 613.67182 145.09312 615.87875 144.3125 618.28125 C 140.8992 628.78633 142.37247 638.6996 147.625 640.40625 C 152.87754 642.11291 159.93045 634.97383 163.34375 624.46875 C 164.12232 622.07257 164.62445 619.71188 164.90625 617.46875 C 166.45413 619.12028 168.27133 620.73575 170.3125 622.21875 C 179.24866 628.71125 189.12876 630.34308 192.375 625.875 C 195.62125 621.40693 190.99865 612.52375 182.0625 606.03125 C 180.01885 604.54645 177.9264 603.33729 175.875 602.375 C 177.92901 601.41215 180.01615 600.17426 182.0625 598.6875 C 190.99865 592.19501 195.62124 583.31182 192.375 578.84375 C 189.12875 574.37567 179.24866 576.03876 170.3125 582.53125 C 168.27133 584.01425 166.45413 585.59847 164.90625 587.25 C 164.62445 585.00687 164.12232 582.64618 163.34375 580.25 C 160.14377 570.40149 153.7685 563.50959 148.65625 564.09375 z "
       id="use3782" />
    <path
       style="color:#000000;fill:none;stroke:#000000;stroke-width:1.25;stroke-miterlimit:4;stroke-dasharray:none;marker:none;visibility:visible;display:inline;overflow:visible;enable-background:accumulate"
       d="M 170.3125 564.09375 C 165.4024 564.45926 159.64289 571.05805 156.65625 580.25 C 155.87768 582.64618 155.37555 585.00687 155.09375 587.25 C 153.54587 585.59848 151.72867 584.01425 149.6875 582.53125 C 140.75134 576.03875 130.87124 574.37568 127.625 578.84375 C 124.37875 583.31183 129.00135 592.195 137.9375 598.6875 C 139.98385 600.17426 142.071 601.41215 144.125 602.375 C 142.0736 603.33729 139.98115 604.54645 137.9375 606.03125 C 129.00135 612.52374 124.37876 621.40693 127.625 625.875 C 130.87125 630.34308 140.75134 628.71124 149.6875 622.21875 C 151.72867 620.73575 153.54587 619.12028 155.09375 617.46875 C 155.37555 619.71188 155.87768 622.07257 156.65625 624.46875 C 160.06956 634.97383 167.12247 642.1129 172.375 640.40625 C 177.62754 638.69959 179.10081 628.78633 175.6875 618.28125 C 174.90688 615.87875 173.93777 613.67182 172.84375 611.6875 C 175.06953 612.11502 177.47317 612.375 180 612.375 C 191.04569 612.375 200 607.89784 200 602.375 C 200 596.85215 191.04569 592.375 180 592.375 C 177.47317 592.375 175.06953 592.60373 172.84375 593.03125 C 173.93778 591.04693 174.90688 588.84 175.6875 586.4375 C 179.1008 575.93242 177.62753 566.01915 172.375 564.3125 C 171.71843 564.09917 171.01394 564.04153 170.3125 564.09375 z "
       id="use3784" />
    <path
       style="color:#000000;fill:none;stroke:#000000;stroke-width:1.25;stroke-miterlimit:4;stroke-dasharray:none;marker:none;visibility:visible;display:inline;overflow:visible;enable-background:accumulate"
       d="M 23.9375 709.84375 C 19.466258 709.80434 13.5226 711.97344 7.9375 716.03125 C 5.5988071 717.73041 3.5580546 719.59513 1.875 721.5 C 4.3594684 722.05351 7.1044738 722.375 10 722.375 C 21.045695 722.375 30 717.89785 30 712.375 C 28.78266 710.69947 26.620245 709.8674 23.9375 709.84375 z "
       id="path3860" />
    <path
       style="color:#000000;fill:none;stroke:#000000;stroke-width:1.25;stroke-miterlimit:4;stroke-dasharray:none;marker:none;visibility:visible;display:inline;overflow:visible;enable-background:accumulate"
       d="M 12.625 688.4375 C 12.866441 690.97078 13.417992 693.68449 14.3125 696.4375 C 17.7258 706.94258 24.74746 714.08166 30 712.375 C 33.24625 707.90693 28.62365 699.02374 19.6875 692.53125 C 17.348644 690.83197 14.956881 689.44956 12.625 688.4375 z "
       id="path3864" />
    <path
       style="color:#000000;fill:none;stroke:#000000;stroke-width:1.25;stroke-miterlimit:4;stroke-dasharray:none;marker:none;visibility:visible;display:inline;overflow:visible;enable-background:accumulate"
       d="M 47.375 688.4375 C 45.043119 689.44956 42.651356 690.83197 40.3125 692.53125 C 31.37635 699.02375 26.75375 707.90692 30 712.375 C 35.25254 714.08165 42.27419 706.94258 45.6875 696.4375 C 46.582006 693.68449 47.133561 690.97078 47.375 688.4375 z "
       id="path3868" />
    <path
       style="color:#000000;fill:none;stroke:#000000;stroke-width:1.25;stroke-miterlimit:4;stroke-dasharray:none;marker:none;visibility:visible;display:inline;overflow:visible;enable-background:accumulate"
       d="M 36.0625 709.84375 C 33.379755 709.8674 31.217344 710.69947 30 712.375 C 30 717.89784 38.9543 722.375 50 722.375 C 52.895525 722.375 55.640532 722.05351 58.125 721.5 C 56.441946 719.59513 54.401193 717.73041 52.0625 716.03125 C 46.4774 711.97344 40.533741 709.80434 36.0625 709.84375 z "
       id="path3872" />
    <path
       style="color:#000000;fill:none;stroke:#000000;stroke-width:1.25;stroke-miterlimit:4;stroke-dasharray:none;marker:none;visibility:visible;display:inline;overflow:visible;enable-background:accumulate"
       d="M 30 712.375 C 24.74747 714.08165 23.24295 723.96367 26.65625 734.46875 C 27.552877 737.22828 28.70252 739.74249 30 741.9375 C 31.297477 739.74249 32.447125 737.22828 33.34375 734.46875 C 36.75706 723.96367 35.25254 714.08166 30 712.375 z "
       id="path3876" />
    <path
       style="color:#000000;fill:none;stroke:#000000;stroke-width:1.25;stroke-miterlimit:4;stroke-dasharray:none;marker:none;visibility:visible;display:inline;overflow:visible;enable-background:accumulate"
       d="M -90 592.375 C -92.898242 592.375 -95.638704 592.69551 -98.125 593.25 C -96.442524 595.15368 -94.39979 596.98936 -92.0625 598.6875 C -83.12634 605.17999 -73.24625 606.84308 -70 602.375 C -70 596.85215 -78.954305 592.375 -90 592.375 z "
       id="path3884" />
    <path
       style="color:#000000;fill:none;stroke:#000000;stroke-width:1.25;stroke-miterlimit:4;stroke-dasharray:none;marker:none;visibility:visible;display:inline;overflow:visible;enable-background:accumulate"
       d="M -70 572.78125 C -71.297477 574.97626 -72.447125 577.49047 -73.34375 580.25 C -76.75706 590.75508 -75.25254 600.66834 -70 602.375 C -64.74747 600.66835 -63.24295 590.75508 -66.65625 580.25 C -67.552877 577.49047 -68.70252 574.97626 -70 572.78125 z "
       id="path3888" />
    <path
       style="color:#000000;fill:none;stroke:#000000;stroke-width:1.25;stroke-miterlimit:4;stroke-dasharray:none;marker:none;visibility:visible;display:inline;overflow:visible;enable-background:accumulate"
       d="M -50 592.375 C -61.0457 592.375 -70 596.85215 -70 602.375 C -66.75376 606.84307 -56.87366 605.18 -47.9375 598.6875 C -45.60021 596.98936 -43.557476 595.15368 -41.875 593.25 C -44.361296 592.69551 -47.10176 592.375 -50 592.375 z "
       id="path3892" />
    <path
       style="color:#000000;fill:none;stroke:#000000;stroke-width:1.25;stroke-miterlimit:4;stroke-dasharray:none;marker:none;visibility:visible;display:inline;overflow:visible;enable-background:accumulate"
       d="M -67.96875 602.125 C -68.670193 602.07278 -69.343433 602.16167 -70 602.375 C -73.24625 606.84308 -68.62365 615.72625 -59.6875 622.21875 C -57.348644 623.91803 -54.956881 625.26919 -52.625 626.28125 C -52.866441 623.74797 -53.417992 621.03426 -54.3125 618.28125 C -57.299138 609.0893 -63.058652 602.49051 -67.96875 602.125 z "
       id="path3896" />
    <path
       style="color:#000000;fill:none;stroke:#000000;stroke-width:1.25;stroke-miterlimit:4;stroke-dasharray:none;marker:none;visibility:visible;display:inline;overflow:visible;enable-background:accumulate"
       d="M -72.03125 602.125 C -76.941348 602.49051 -82.700854 609.0893 -85.6875 618.28125 C -86.582006 621.03426 -87.133561 623.74797 -87.375 626.28125 C -85.043119 625.26919 -82.651356 623.91803 -80.3125 622.21875 C -71.37635 615.72625 -66.75375 606.84308 -70 602.375 C -70.656567 602.16167 -71.329807 602.07278 -72.03125 602.125 z "
       id="path3900" />
    <path
       id="path3915"
       d="m -81.34375,634.08093 c -0.34082,0.0389 -0.70297,0.11208 -1.03125,0.21875 -5.25254,1.70666 -6.72581,11.61992 -3.3125,22.125 0.78062,2.4025 1.74973,4.60943 2.84375,6.59375 -2.22578,-0.42752 -4.62942,-0.65625 -7.15625,-0.65625 -11.0457,0 -20,4.47716 -20,10 0,5.52285 8.9543,10 20,10 2.52683,0 4.93047,-0.25998 7.15625,-0.6875 -1.09403,1.98432 -2.06313,4.19125 -2.84375,6.59375 -3.4133,10.50508 -1.94003,20.41835 3.3125,22.125 5.25254,1.70666 12.30545,-5.43242 15.71875,-15.9375 0.77857,-2.39618 1.2807,-4.75687 1.5625,-7 1.54788,1.65153 3.36508,3.267 5.40625,4.75 8.93616,6.4925 18.81626,8.12433 22.0625,3.65625 3.24625,-4.46807 -1.37635,-13.35125 -10.3125,-19.84375 -2.04365,-1.4848 -4.1361,-2.69396 -6.1875,-3.65625 2.05401,-0.96285 4.14115,-2.20074 6.1875,-3.6875 8.93615,-6.49249 13.55874,-15.37568 10.3125,-19.84375 -3.24625,-4.46808 -13.12634,-2.80499 -22.0625,3.6875 -2.04117,1.483 -3.85837,3.06722 -5.40625,4.71875 -0.2818,-2.24313 -0.78393,-4.60382 -1.5625,-7 -3.19998,-9.84851 -9.57525,-16.74041 -14.6875,-16.15625 z"
       style="color:#000000;fill:none;stroke:#000000;stroke-width:1.25;stroke-miterlimit:4;stroke-dasharray:none;marker:none;visibility:visible;display:inline;overflow:visible;enable-background:accumulate" />
    <path
       id="path3917"
       d="m -59.6875,634.08093 c -4.9101,0.36551 -10.66961,6.9643 -13.65625,16.15625 -0.77857,2.39618 -1.2807,4.75687 -1.5625,7 -1.54788,-1.65152 -3.36508,-3.23575 -5.40625,-4.71875 -8.93616,-6.4925 -18.81626,-8.15557 -22.0625,-3.6875 -3.24625,4.46808 1.37635,13.35125 10.3125,19.84375 2.04635,1.48676 4.1335,2.72465 6.1875,3.6875 -2.0514,0.96229 -4.14385,2.17145 -6.1875,3.65625 -8.93615,6.49249 -13.55874,15.37568 -10.3125,19.84375 3.24625,4.46808 13.12634,2.83624 22.0625,-3.65625 2.04117,-1.483 3.85837,-3.09847 5.40625,-4.75 0.2818,2.24313 0.78393,4.60382 1.5625,7 3.41331,10.50508 10.46622,17.64415 15.71875,15.9375 5.25254,-1.70666 6.72581,-11.61992 3.3125,-22.125 -0.78062,-2.4025 -1.74973,-4.60943 -2.84375,-6.59375 2.22578,0.42752 4.62942,0.6875 7.15625,0.6875 11.04569,0 20,-4.47716 20,-10 0,-5.52285 -8.95431,-10 -20,-10 -2.52683,0 -4.93047,0.22873 -7.15625,0.65625 1.09403,-1.98432 2.06313,-4.19125 2.84375,-6.59375 3.4133,-10.50508 1.94003,-20.41835 -3.3125,-22.125 -0.65657,-0.21333 -1.36106,-0.27097 -2.0625,-0.21875 z"
       style="color:#000000;fill:none;stroke:#000000;stroke-width:1.25;stroke-miterlimit:4;stroke-dasharray:none;marker:none;visibility:visible;display:inline;overflow:visible;enable-background:accumulate" />
  </g>
</svg>
